<?xml version="1.0" encoding="utf-8"?>
<!-- Uploaded to: SVG Repo, www.svgrepo.com, Generator: SVG Repo Mixer Tools -->
<svg width="800px" height="800px" viewBox="0 -26.78 378.777 378.777" xmlns="http://www.w3.org/2000/svg"><defs><style>.a{fill:#ffffff;}.b{fill:#d9d5e6;}.c{fill:#7a7473;}.d{fill:#211715;}.e{fill:#a095c1;}.f{fill:#f6928f;}.g{fill:#f2635f;}</style></defs><path class="a" d="M342.585,164.114c-12.992-9.843-32.978-13.858-44.551-14.454a76.284,76.284,0,0,1-42.564,23.592c-5.964,1.034-12.148,1.328-18.129-.206A27.624,27.624,0,0,1,221.239,162c-16.06,7.83-30.966,16.924-38.353,27.376-5.584,7.9-7.722,18.667-8.833,28-.828,8.654-1.7,20.564-2.122,33.418-.517,15.866-.89,27.992,5.622,36.172a23.717,23.717,0,0,0,17.833,9.5c7.95.589,13.819-.711,19.045-3.564a117.732,117.732,0,0,1,4.754,30h54.109V312.011h43.915c17.222-2.389,33.278-5.667,45.391-14.884a33.975,33.975,0,0,0,12.433-18.435c3.061-12.914.655-34.355-5.09-59.26-4.732-20.513-12.61-41.745-23.984-52.473A41.07,41.07,0,0,0,342.585,164.114Z"/><path class="a" d="M240.318,288.823c-2.806.748-3.813,2.839-3.655,4.384a4.507,4.507,0,0,0,3.493,4.153l1.486.339c-.712.092-1.414.184-2.1.275a4.988,4.988,0,0,0-4.581,5.87,4.778,4.778,0,0,0,3.308,3.431,12.749,12.749,0,0,0,4.262.383c-.639.416-1.06.692-1.06.692-2.3,1.512-1.826,5.541-.128,6.788,1.445,1.061,3.728,1.184,5.512,1.014q.9-.085,1.773-.171a4.392,4.392,0,0,0,1.361,5.405c1.827,1.1,3.667,1.292,6.842,1.145,7.222-.333,15.805-1.665,23.95-2.852,5.946-1.109,14.724-4.224,19.735-8.332a16.631,16.631,0,0,0,5.466-7.129c.058-.159.53-1.748,1.082-3.618-1.6-9.528-5.038-21.241-9.432-24.7-2.921.333-10.3-2.1-13.478-3.207-1.725-.6-3.554-.879-5.26-1.536-2.19-.842-4.747-1.751-6.98-2.471-2.648-.854-4.94-.537-6.261.747-1.369,1.33-1.328,2.842-.752,4.661a10.664,10.664,0,0,0,3.3,4.59,22.137,22.137,0,0,0,6.916,4.146,28.655,28.655,0,0,1-9.528,2.813c-7.722.846-17.463,1.946-24.435,3.007A7.835,7.835,0,0,0,240.318,288.823Z"/><path class="a" d="M286.724,88.182a7.789,7.789,0,0,1,5.435-1.9c3.9.12,5.562,2.124,6.276,3.3,2.134,3.516,2.058,9.993.633,14.011a20.393,20.393,0,0,1-6.565,9.923,14.941,14.941,0,0,1-7.035,2.556l-.438,1.121c-.7,2.051-2.487,5.71-2.487,5.71a73.642,73.642,0,0,1-4.562,7.78q1.037,3.108,2.072,6.227a27.438,27.438,0,0,0,2.21,5.34c2.65,4.49,8.36,7.07,13.98,8.25,0,0,.418.087.828.182a76.142,76.142,0,0,1-41.6,22.57c-5.964,1.034-12.148,1.328-18.129-.206a27.96,27.96,0,0,1-15.029-9.57c3.348-1.627,6.814-3.312,9.091-4.656a10.934,10.934,0,0,0,4.967-4.973c-8.512.474-16.292-1.724-24.057-6.658-9.372-5.956-14.41-16.521-17.211-28.535-1.616-6.927-3.2-14.478-5.128-21.982,0,0-16.014-42.58,43.32-42.58S286.724,88.182,286.724,88.182Z"/><path class="b" d="M192.423,69.066c-8.218,12.265-2.449,27.606-2.449,27.606.985,3.843,1.882,7.7,2.74,11.474,10.17-3.683,23.957-5.951,33.476-6.492l21.532-1.224a68.74,68.74,0,0,1,8.514-.131c4.662.316,9.2,1.578,13.764,2.582a125.685,125.685,0,0,0,16.725,2.511,20.05,20.05,0,0,0,8.182-.549,10.959,10.959,0,0,0,4.7-3.2c.858-3.935.641-9.069-1.174-12.06-.714-1.176-2.38-3.18-6.276-3.3a7.789,7.789,0,0,0-5.435,1.9s5.9-34.09-53.43-34.09C209.574,54.092,197.9,60.9,192.423,69.066Z"/><path class="a" d="M75.808,2.4C32.426,2.4,2.44,36,2.44,75.318c0,43.991,30.631,74.286,73.371,74.286,44.387,0,73.371-30.578,73.371-74.286C149.182,35.733,119.038,2.4,75.808,2.4Z"/><path class="a" d="M133.029,138.058a9.079,9.079,0,0,0-9.258,9.2c0,5.552,3.865,9.375,9.259,9.375,5.6,0,9.259-3.859,9.259-9.375A9.071,9.071,0,0,0,133.029,138.058Z"/><path class="a" d="M150.386,159.329a4.743,4.743,0,0,0-4.836,4.807,4.664,4.664,0,0,0,4.836,4.9,4.615,4.615,0,0,0,4.837-4.9A4.739,4.739,0,0,0,150.386,159.329Z"/><path class="c" d="M207.484,75.153c-.1-.308-.221-.631-.37-.973-.572-1.313-1.727-1.711-2.472-1.138-6.354,4.889-13.986,20.025-14.149,25.152,0,0-.022.693-.059,1.713a89.877,89.877,0,0,1-4.422-29.7c.411-8.831,3.191-19.05,7.961-26.46,8.262-12.836,21.943-21.8,39.993-25.117,11.39-2.1,23.146-1.493,36.691,5.64l8.422,4.436,1.646,1.159c8.309,5.852,12.966,13.181,16.606,22.4a48.21,48.21,0,0,1,3.279,14.5c.342,5.26,1.554,17.47-1.32,24.7a9.356,9.356,0,0,0-.855-1.882c-.714-1.176-2.38-3.18-6.276-3.3a7.789,7.789,0,0,0-5.435,1.9s-1.48.423-3.068.871c-1.435.405-9.025-6.194-9.025-6.194-13.157-17.22-28-20.1-31.243-20.883a50.459,50.459,0,0,0-8.965-.335l-.828.307c-10.1,3.748-18.429,13.24-22.938,16.885a1.734,1.734,0,0,1-2.755-1.41A9.057,9.057,0,0,0,207.484,75.153Z"/><path class="d" d="M275.669,131.328c.919,2.758,1.774,5.548,2.779,8.276a18.153,18.153,0,0,0,4.111,6.871c3.488,3.445,8.329,5.328,13.046,6.339a2.458,2.458,0,0,0,2.953-1.676,2.427,2.427,0,0,0-1.677-2.953c-3.942-.845-8.07-2.28-10.928-5.1a13.375,13.375,0,0,1-3.06-5.265c-.909-2.572-1.733-5.177-2.595-7.764a2.456,2.456,0,0,0-2.953-1.677,2.425,2.425,0,0,0-1.676,2.953Z"/><path class="d" d="M216.755,168.932c3.749-2.01,7.631-3.764,11.431-5.674,4.016-2.019,8.115-4,10.25-8.2a2.458,2.458,0,0,0-.861-3.284,2.425,2.425,0,0,0-3.284.861c-1.805,3.553-5.682,5.057-9.077,6.75-3.623,1.807-7.313,3.486-10.882,5.4-2.724,1.46-.3,5.6,2.423,4.145Z"/><path class="d" d="M279.513,31.938c7.058,5.015,11.9,12.1,15.14,20.051,3.335,8.172,4.049,16.911,4.1,25.659.026,4.423-.168,9.009-1.782,13.18a2.418,2.418,0,0,0,1.677,2.952A2.454,2.454,0,0,0,301.6,92.1c1.581-4.085,1.894-8.659,1.949-13,.048-3.864-.221-7.715-.482-11.567a57.04,57.04,0,0,0-9.793-28.348,46.005,46.005,0,0,0-11.337-11.395,2.42,2.42,0,0,0-3.284.861,2.451,2.451,0,0,0,.861,3.283Z"/><path class="d" d="M242.75,64.29a49,49,0,0,1,21.292,10.763,61.378,61.378,0,0,1,8.516,9.017,2.481,2.481,0,0,0,3.284.861,2.416,2.416,0,0,0,.861-3.283c-7.395-9.612-17.121-17.449-28.849-20.991-1.264-.382-2.545-.687-3.828-1-3-.721-4.283,3.906-1.276,4.629Z"/><path class="d" d="M192.893,98.194c.007-.16.022-.318.033-.478-.039.573-.039.253-.014.112.057-.328.121-.654.2-.978a25.259,25.259,0,0,1,.758-2.529,46.866,46.866,0,0,1,2.377-5.512A52.706,52.706,0,0,1,203.481,77.5,23.559,23.559,0,0,1,205.4,75.53c.125-.113.254-.22.379-.333.494-.449.447-.061-.054-.057-1.064.007-.887-.4-.547.677.359,1.131.252,2.384.8,3.446a4.242,4.242,0,0,0,3.606,2.326c2.15.074,3.878-1.969,5.34-3.315,1.635-1.5,3.25-3.033,4.913-4.507,4.291-3.8,8.992-7.457,14.4-9.5a2.468,2.468,0,0,0,1.677-2.952,2.42,2.42,0,0,0-2.953-1.677,50.859,50.859,0,0,0-14.626,9.1c-1.894,1.6-3.715,3.277-5.529,4.962-.688.64-1.376,1.281-2.073,1.911-.305.276-.612.551-.924.82-.554.48-1.168.659.165.425.417-.073.4.724.185-.719a9.991,9.991,0,0,0-.412-1.78,5.6,5.6,0,0,0-2.712-3.566c-2.606-1.244-4.717.907-6.367,2.678A53.74,53.74,0,0,0,192.548,85.5c-1.981,3.836-4.256,8.284-4.455,12.692-.139,3.089,4.661,3.082,4.8,0Z"/><path class="d" d="M240.529,102.906c-.97-2.4-.959-8.127,3.678-9.008,6.186-.49,7.1,6.35,5.294,9.756C248.022,106.443,243.105,107.969,240.529,102.906Z"/><path class="d" d="M203.919,107.186c-.914-2.419-.962-8.153,3.281-8.99,5.667-.428,6.575,6.435,4.953,9.83C210.825,110.805,206.332,112.285,203.919,107.186Z"/><path class="d" d="M223.792,110.411c-.72,1.626-1.412,3.273-1.987,4.956a4.757,4.757,0,0,0-.318,1.806,3.415,3.415,0,0,0,.45,1.605,4.021,4.021,0,0,0,1.232,1.2,4.8,4.8,0,0,0,2.276.76c.322.033.639,0,.961.012a2.421,2.421,0,0,0,2.4-2.4,2.447,2.447,0,0,0-2.4-2.4c-.322-.008-.64.025-.961-.012l.638.085a2.526,2.526,0,0,1-.589-.163l.574.242a3.385,3.385,0,0,1-.577-.342l.485.375a1.53,1.53,0,0,1-.223-.2l.375.486a.769.769,0,0,1-.085-.14l.242.573a1.314,1.314,0,0,1-.073-.236l.086.638a1.867,1.867,0,0,1,0-.442l-.086.638a10.15,10.15,0,0,1,.656-2.021c.279-.727.574-1.449.877-2.167l-.242.574q.213-.506.433-1.006a2.609,2.609,0,0,0,.242-1.85,2.4,2.4,0,0,0-2.952-1.676,2.327,2.327,0,0,0-1.434,1.1Z"/><path class="d" d="M273.7,139.874a64.281,64.281,0,0,0,13.646-22.043,2.4,2.4,0,1,0-4.628-1.276,52.473,52.473,0,0,1-3.984,8.361A61.858,61.858,0,0,1,270.3,136.48c-2.1,2.263,1.289,5.666,3.394,3.394Z"/><path class="d" d="M271.869,22.2a57.6,57.6,0,0,0-30.408-6.912,71.086,71.086,0,0,0-27.811,7.648,57.222,57.222,0,0,0-20,17.05c-5.965,8.157-9.072,18.25-9.911,28.254a72.177,72.177,0,0,0,.626,15.556,90.349,90.349,0,0,0,4,17.489c1,2.9,5.638,1.656,4.629-1.276-5.994-17.4-7.325-38.556,2.836-54.72,9.123-14.514,25.533-22.832,42.234-24.886a53.025,53.025,0,0,1,31.376,5.942c2.735,1.428,5.165-2.713,2.423-4.145Z"/><path class="d" d="M261.385,142.7a59.053,59.053,0,0,1-19.142,7.981,37.556,37.556,0,0,1-20.172-1.285,35.06,35.06,0,0,1-15.585-10.674c-3.9-4.816-6.326-10.75-8.02-16.655-2.457-8.563-3.973-17.4-6.177-26.034-.764-2.991-5.395-1.723-4.629,1.276,2.076,8.129,3.6,16.4,5.756,24.506,1.734,6.537,4.276,13.067,8.316,18.542,8.739,11.845,24.061,17.458,38.463,15.506,8.494-1.151,16.347-4.56,23.613-9.018,2.629-1.613.22-5.766-2.423-4.145Z"/><path class="d" d="M288.421,89.879a5.467,5.467,0,0,1,3.738-1.2,6.361,6.361,0,0,1,2.118.394,4.42,4.42,0,0,1,.656.317,4.313,4.313,0,0,1,.463.3,5.449,5.449,0,0,1,.5.475c.126.133.472.614.194.208a7.244,7.244,0,0,1,.712,1.245,12.621,12.621,0,0,1,.864,4.219c.3,5.6-1.881,12.244-6.525,15.72-2.277,1.7-5.776,2.714-8.526,1.821-2.945-.956-4.206,3.677-1.276,4.629,3.8,1.232,8.336.1,11.667-1.938,3.457-2.114,5.884-5.721,7.431-9.387a24.228,24.228,0,0,0,2.006-11.217c-.246-3.421-1.149-7.149-3.937-9.4a10.734,10.734,0,0,0-13.477.42,2.421,2.421,0,0,0,0,3.394,2.447,2.447,0,0,0,3.394,0Z"/><path class="d" d="M244.822,87.448a18.288,18.288,0,0,0,11,3.467,2.4,2.4,0,1,0,0-4.8c-.4.008-.8,0-1.194-.022-.2-.012-.407-.029-.609-.049-.1-.011-.2-.022-.307-.035q.573.079.177.023a18.542,18.542,0,0,1-2.472-.576c-.412-.129-.814-.28-1.217-.434q-.363-.148.124.055c-.1-.043-.2-.087-.3-.133-.2-.09-.391-.184-.584-.282a15.5,15.5,0,0,1-2.2-1.359,2.416,2.416,0,0,0-1.85-.242,2.4,2.4,0,0,0-.573,4.387Z"/><path class="d" d="M261.276,98.582a56.556,56.556,0,0,0,.512,6.705c.277,1.959.577,4.227,1.965,5.75a5.914,5.914,0,0,0,5.955,1.43,6.359,6.359,0,0,0,4.171-4.582,2.4,2.4,0,1,0-4.628-1.276c-.045.153-.095.3-.143.455-.16.505.255-.452,0,.01-.076.137-.158.274-.23.413-.192.374.241-.238.05-.044-.11.112-.224.224-.333.338-.172.179.409-.213.029-.04a3.046,3.046,0,0,1-.3.16l.263-.114a3.888,3.888,0,0,0-.473.135c-.5.137.508.011-.018,0a2.443,2.443,0,0,1-.5,0c0,.021.594.121.069,0-.076-.018-.634-.14-.255-.054.344.079-.052-.049-.146-.094-.454-.216.341.273-.019-.021q-.2-.224,0,.007c.123.163.127.155.01-.023-.042-.073-.081-.148-.117-.224-.076-.16-.052-.1.07.175a2.553,2.553,0,0,1-.281-.912c-.087-.344-.156-.693-.223-1.041q-.124-.645-.223-1.3c-.009-.055-.1-.768-.034-.22-.026-.214-.053-.428-.076-.643-.183-1.659-.256-3.327-.293-5a2.4,2.4,0,0,0-4.8,0Z"/><path class="d" d="M316.153,208.1a330.965,330.965,0,0,1,12.859,47.16,2.425,2.425,0,0,0,2.952,1.677,2.45,2.45,0,0,0,1.677-2.953,331.1,331.1,0,0,0-12.859-47.16,2.463,2.463,0,0,0-2.952-1.676,2.42,2.42,0,0,0-1.677,2.952Z"/><path class="d" d="M317.847,314.325c16.789-2.337,35.461-5.54,48.558-17.241A35.539,35.539,0,0,0,377.9,276.571a87.018,87.018,0,0,0,.445-21.26,232.115,232.115,0,0,0-4.116-27.467,233.752,233.752,0,0,0-7.156-27.609c-5.042-15.049-12.1-30.934-25.8-39.976a75.368,75.368,0,0,0-20.7-9.109,104.834,104.834,0,0,0-20.157-3.733q-1.911-.16-3.828-.223c-3.089-.1-3.086,4.7,0,4.8a88.458,88.458,0,0,1,17.332,2.393,83.147,83.147,0,0,1,20.086,7.162A44.055,44.055,0,0,1,349.46,174.6a90.383,90.383,0,0,1,10.958,21.23,192.788,192.788,0,0,1,7.543,25.693,270.06,270.06,0,0,1,4.912,27.214,115.424,115.424,0,0,1,.9,22.1,39.577,39.577,0,0,1-1.377,8.445,29.773,29.773,0,0,1-5.263,10.051c-4.934,6.261-12.133,10.456-19.479,13.3a120.664,120.664,0,0,1-24.577,6.107c-2.165.346-4.334.662-6.506.965a2.415,2.415,0,0,0-1.676,2.952,2.463,2.463,0,0,0,2.952,1.676Z"/><path class="d" d="M336.182,253.363c-12.09,4.211-24.22,8.309-36.472,12.028-2.948.895-1.691,5.53,1.276,4.629,12.252-3.719,24.382-7.818,36.472-12.028a2.46,2.46,0,0,0,1.677-2.952,2.424,2.424,0,0,0-2.953-1.677Z"/><path class="d" d="M219.554,163.776c15.087,20.656,45.791,12.619,64.055,1.02a82.618,82.618,0,0,0,15.16-12.417c2.143-2.225-1.246-5.624-3.395-3.394a75.544,75.544,0,0,1-25.87,17.739c-9.88,4-21.748,6.786-32.257,3.81a25.315,25.315,0,0,1-13.549-9.181,2.471,2.471,0,0,0-3.283-.861,2.418,2.418,0,0,0-.861,3.284Z"/><path class="d" d="M229.587,134.406a10.064,10.064,0,0,1,1.288-.775c.112-.056.225-.111.339-.164.049-.022.433-.187.155-.072-.315.13.259-.1.261-.1q.188-.07.378-.135a16.885,16.885,0,0,1,1.679-.476c.272-.062.544-.118.818-.167.136-.025.275-.043.411-.069.376-.074-.574.056.083-.012.539-.056,1.08-.1,1.623-.1q.439,0,.879.021c.127.008.253.017.379.029.066.006.482.064.142.011-.377-.059.193.039.216.044.129.025.258.054.385.085.3.074.594.164.887.257.705.226,1.4.479,2.111.69a2.4,2.4,0,0,0,1.276-4.628,27.752,27.752,0,0,0-4.235-1.164,15.047,15.047,0,0,0-3.869-.02,16.636,16.636,0,0,0-7.629,2.6,2.455,2.455,0,0,0-.861,3.284,2.429,2.429,0,0,0,3.284.861Z"/><path class="d" d="M219.464,160.2a186.041,186.041,0,0,0-19.637,10.941,79.15,79.15,0,0,0-15.389,12.526c-9.184,10.047-11.9,23.667-13.073,36.828q-.935,10.536-1.454,21.1c-.376,7.547-.733,15.134-.621,22.693.087,5.817.478,11.907,2.6,17.385A27.343,27.343,0,0,0,183.874,295.6c5.511,3.079,12.081,3.773,18.291,3.28a33.617,33.617,0,0,0,16.562-5.814c1.269-.875,2.489-1.823,3.679-2.8a2.416,2.416,0,0,0,0-3.394,2.453,2.453,0,0,0-3.394,0,30.887,30.887,0,0,1-30.548,5.636,22.165,22.165,0,0,1-11.658-11.4c-2.067-4.65-2.52-10-2.676-15.055-.217-7.029.118-14.093.425-21.114q.453-10.356,1.292-20.691c.964-11.867,2.37-25.078,9.949-34.793,4.116-5.275,9.516-9.516,15.035-13.226a179.21,179.21,0,0,1,21.055-11.879,2.423,2.423,0,0,0,.861-3.284,2.45,2.45,0,0,0-3.283-.861Z"/><path class="d" d="M212.565,295.1a116.782,116.782,0,0,1,4.22,27.8c.091,3.082,4.892,3.1,4.8,0a122.421,122.421,0,0,0-4.392-29.073c-.825-2.972-5.458-1.71-4.628,1.276Z"/><path class="a" d="M207.123,184.809a115.457,115.457,0,0,1-5.1-33.139,20.942,20.942,0,0,1,1.056-7.9c.652-1.641,2.167-3.329,3.878-2.891,1.354.347,2.031,1.831,2.49,3.152a82.893,82.893,0,0,1,2.948,10.789l2.653-4.337c2.435-7.264,6.03-14.075,9.609-20.85,1.088-2.059,2.262-4.213,4.236-5.449s5-1.123,6.224.857l1.871,3.019.192-.35a8.914,8.914,0,0,1,2.354-3.1,4.457,4.457,0,0,1,6.912,2.435,7.742,7.742,0,0,1-.6,5.032l-1.6,3.692,2.233-2.3c1-1.026,3.746-.968,4.739-.18,2.37,1.88,1.511,5.351,1.038,6.633-.745,2.022-1.826,4.6-3.019,7.3l2.39-2.489a4.292,4.292,0,0,1,4.966-.682,3.847,3.847,0,0,1,1.509,4.394c-2.043,7.166-7.537,18.835-11.24,26.438a40.6,40.6,0,0,1-10.54,14.634,40.6,40.6,0,0,0-3,3.735,8.632,8.632,0,0,0-1.447,2.669,1.274,1.274,0,0,1-.558.736,1.4,1.4,0,0,1-.773.05,40.379,40.379,0,0,1-20.727-8.539,27.156,27.156,0,0,1-2.7-3.359"/><path class="d" d="M209.438,184.171a113.392,113.392,0,0,1-4.559-23.036,88.938,88.938,0,0,1-.418-11.925,11.9,11.9,0,0,1,1-4.881c.333-.642.7-1.481,1.182-.749.979,1.485,1.347,3.622,1.835,5.312.625,2.167,1.155,4.358,1.607,6.567a2.4,2.4,0,0,0,4.629-1.276c-.468-2.285-1.02-4.551-1.672-6.791a29,29,0,0,0-2.171-6.094,5.133,5.133,0,0,0-4.908-2.843,6.267,6.267,0,0,0-4.729,3.614c-2.062,4.109-1.695,9.172-1.509,13.628a120.912,120.912,0,0,0,1.438,14.069,117,117,0,0,0,3.649,15.681c.9,2.946,5.535,1.69,4.629-1.276Z"/><path class="d" d="M217.363,151.122a120.086,120.086,0,0,1,7.618-16.954c1.192-2.28,2.252-5,4.006-6.923.8-.871,3.1-2.389,4.059-.992a2.461,2.461,0,0,0,3.283.861,2.421,2.421,0,0,0,.861-3.284,6.847,6.847,0,0,0-8.362-2.268c-3.194,1.3-4.929,4.377-6.461,7.276-3.6,6.816-7.152,13.689-9.632,21.008-.994,2.932,3.641,4.191,4.628,1.276Z"/><path class="d" d="M225.982,154.158q3.484-6.915,7.1-13.764,1.777-3.369,3.588-6.722a46.45,46.45,0,0,1,3.6-6.44,2.172,2.172,0,0,1,3.472-.3c1.137,1.359.233,3.481-.367,4.872-1.637,3.794-3.234,7.605-4.878,11.4-1.94,4.47-3.927,8.924-6.137,13.268-1.4,2.748,2.743,5.18,4.145,2.423,2.241-4.407,4.255-8.927,6.221-13.463,1.882-4.342,3.932-8.676,5.6-13.1a8.772,8.772,0,0,0-.407-7.777,6.878,6.878,0,0,0-6.855-3.059c-2.724.423-4.477,2.375-5.767,4.669-1.429,2.542-2.8,5.122-4.172,7.693q-4.757,8.886-9.29,17.887c-1.386,2.752,2.753,5.185,4.145,2.423Z"/><path class="d" d="M248.175,135.17c-.322.286.18-.03.392-.06a4.588,4.588,0,0,1,.747.006,1.521,1.521,0,0,1,.638.16c-.355-.205.039.124.065.185a4.056,4.056,0,0,1,.214,2.872,45.667,45.667,0,0,1-2.862,7.211c-2.288,5.206-4.7,10.373-7.27,15.444-1.4,2.748,2.744,5.18,4.144,2.422,2.365-4.657,4.579-9.4,6.707-14.169,1.187-2.662,2.354-5.34,3.39-8.065.951-2.5,1.315-5.416-.016-7.86a6.372,6.372,0,0,0-9.543-1.54c-2.316,2.053,1.089,5.438,3.394,3.394Z"/><path class="d" d="M253.323,146.43c.477-.451,1.647-.781,2.221-.185.63.655.214,1.686-.014,2.429-.784,2.552-1.749,5.05-2.758,7.521-2.241,5.487-4.778,10.854-7.357,16.188a2.464,2.464,0,0,0,.861,3.284,2.421,2.421,0,0,0,3.283-.861c3.255-6.73,6.454-13.522,9.1-20.52,1.139-3.019,2.841-6.541,1.426-9.728-1.776-4-7.173-4.339-10.153-1.522-2.25,2.127,1.149,5.517,3.394,3.394Z"/><path class="d" d="M245.043,173.1a41.27,41.27,0,0,1-7.305,11.635c-1.574,1.71-3.345,3.183-4.764,5.03-.689.9-1.4,1.791-2.056,2.715-.609.864-.834,1.924-1.426,2.777l.861-.861c.269-.2.081-.083-.208-.151-.329-.079-.688-.106-1.022-.163q-.9-.153-1.8-.34-1.746-.366-3.458-.871a35.552,35.552,0,0,1-6.593-2.692,29.176,29.176,0,0,1-5.823-3.768A10.886,10.886,0,0,1,209.2,183.6c-1.439-2.735-5.583-.312-4.145,2.422s4.057,4.731,6.567,6.384a41.538,41.538,0,0,0,11.348,5.208,46.758,46.758,0,0,0,6.317,1.324,4.582,4.582,0,0,0,3.492-.393c.99-.667,1.216-1.671,1.71-2.674,1.681-3.412,4.96-5.777,7.406-8.583a45.266,45.266,0,0,0,7.3-11.761,2.478,2.478,0,0,0-.861-3.283,2.418,2.418,0,0,0-3.284.861Z"/><path class="d" d="M199.4,188.774c-1.911,3.568-3.813,7.142-5.759,10.692a2.4,2.4,0,1,0,4.144,2.423c1.946-3.55,3.848-7.124,5.76-10.693a2.4,2.4,0,0,0-4.145-2.422Z"/><path class="d" d="M232.539,197.4c1.937,1.149,4.107,2.552,5.213,4.385a6.8,6.8,0,0,1,.568,5.167c-1.1,5.2-2.709,10.318-4.271,15.392-.911,2.959,3.721,4.224,4.629,1.276q1.323-4.3,2.537-8.632a59.075,59.075,0,0,0,2.047-8.689,10.758,10.758,0,0,0-1.583-7.28,20.072,20.072,0,0,0-6.717-5.764c-2.663-1.58-5.08,2.568-2.423,4.145Z"/><path class="d" d="M275.577,280.448c-2.908-1.144-6.2-3.167-7.844-5.906-.463-.771-1.2-2.236-.657-3.124.588-.969,2.16-.886,3.118-.7,3.67.7,7.069,2.611,10.683,3.545,2.7.7,5.306,1.69,7.981,2.472,2.73.8,5.889,1.832,8.772,1.569a2.465,2.465,0,0,0,2.4-2.4,2.417,2.417,0,0,0-2.4-2.4c-2.634.24-5.618-.824-8.312-1.64-1.412-.428-2.813-.893-4.209-1.371-1.97-.674-4.018-1.06-5.969-1.795-2.049-.773-4.108-1.523-6.193-2.193a10.429,10.429,0,0,0-6.312-.336,6.432,6.432,0,0,0-4.206,3.974,8.323,8.323,0,0,0,.774,6.111c2.068,4.283,6.836,7.15,11.1,8.826a2.417,2.417,0,0,0,2.952-1.676,2.456,2.456,0,0,0-1.676-2.952Z"/><path class="d" d="M274.118,280.656c-6.737,3.167-14.4,3.207-21.677,4.089-3.617.438-7.233.9-10.839,1.428-3.13.46-6.28,1.868-7.154,5.212a7,7,0,0,0,5.07,8.289c2.99.786,4.265-3.843,1.276-4.628a2.228,2.228,0,0,1-1.745-2.256c-.018-.476-.1.2.056-.241.091-.266.1-.3.025-.095a3.754,3.754,0,0,1,.258-.436c-.211.284.438-.4.328-.315a3.275,3.275,0,0,1,.592-.358c1.613-.75,3.9-.741,5.643-.976,1.873-.254,3.749-.489,5.626-.719,4.135-.507,8.275-.975,12.417-1.431a42.792,42.792,0,0,0,6.054-.953,37.351,37.351,0,0,0,6.492-2.465,2.421,2.421,0,0,0,.861-3.284,2.452,2.452,0,0,0-3.283-.861Z"/><path class="d" d="M264.013,292.6q-7.975.9-15.94,1.886-4.065.5-8.127,1.036a8.381,8.381,0,0,0-6.195,3.305A7.082,7.082,0,0,0,238.04,309.7c4.179,1.022,8.906-.148,13.1-.673,5.314-.664,10.626-1.34,15.932-2.067a2.415,2.415,0,0,0,1.676-2.953,2.464,2.464,0,0,0-2.952-1.676q-11.023,1.512-22.081,2.812c-1.738.2-4.327.541-5.752-.73a2.837,2.837,0,0,1-.577-.786,1.764,1.764,0,0,1-.115-.42c.1.386.008.045-.007-.054a2.364,2.364,0,0,1,.332-1.454c.678-1.133,2.107-1.347,3.583-1.54q3.665-.477,7.331-.929,7.744-.957,15.5-1.831a2.472,2.472,0,0,0,2.4-2.4,2.415,2.415,0,0,0-2.4-2.4Z"/><path class="d" d="M240.258,306.278a6.843,6.843,0,0,0-2.251,8.124c1.328,3.407,4.949,4.385,8.331,4.188,7.632-.443,15.277-1.645,22.857-2.6a2.477,2.477,0,0,0,2.4-2.4,2.414,2.414,0,0,0-2.4-2.4c-6.109.773-12.219,1.541-18.344,2.171-2.5.257-5.469.994-7.869-.019a1.521,1.521,0,0,1-.659-1.206,2.655,2.655,0,0,1,.051-1.082,1.113,1.113,0,0,1,.306-.627,2.47,2.47,0,0,0,.861-3.284,2.417,2.417,0,0,0-3.283-.861Z"/><path class="d" d="M302.336,310.953c1.446,1.435,3.423,2.54,5.476,1.745a4.434,4.434,0,0,0,2.575-4.437,57.486,57.486,0,0,0-1.055-8.577,77.373,77.373,0,0,0-5.318-18.584c-1.114-2.486-2.533-5.152-4.687-6.9a2.472,2.472,0,0,0-3.394,0,2.418,2.418,0,0,0,0,3.394,10.542,10.542,0,0,1,1.156,1.12,7.649,7.649,0,0,1,.866,1.193,27.181,27.181,0,0,1,1.915,3.613,59.662,59.662,0,0,1,3.092,9.312,97.944,97.944,0,0,1,2.07,10.177c.188,1.264.347,2.606.463,3.976.029.342.058.684.077,1.026q.024.293.021.585a.142.142,0,0,1,.072-.086c.041.017.868-.595.857-.318,0,.12-.855-.7-.792-.636-2.195-2.179-5.591,1.214-3.394,3.394Z"/><path class="d" d="M246.214,315.577a7.005,7.005,0,0,0,1.564,7.118,9.694,9.694,0,0,0,5.93,2.224,43.64,43.64,0,0,0,7.342-.275c2.707-.236,5.406-.556,8.1-.908,5.1-.668,10.349-1.143,15.332-2.431a56.023,56.023,0,0,0,12.963-5.052c4.652-2.562,9.054-6.255,10.849-11.4a2.4,2.4,0,0,0-4.628-1.276c-1.215,3.48-4.454,6.048-7.516,7.882a47.713,47.713,0,0,1-10.856,4.631,83.56,83.56,0,0,1-12.366,2.322c-4.586.652-9.186,1.256-13.809,1.581-2.4.169-9.656,1.254-8.276-3.143.927-2.954-3.7-4.218-4.629-1.276Z"/><path class="d" d="M218.643,96.949q.3,2.021.8,4a2.4,2.4,0,0,0,2.952,1.677,2.426,2.426,0,0,0,1.434-1.1,2.54,2.54,0,0,0,.242-1.85q-.5-1.982-.8-4a2.684,2.684,0,0,0-1.1-1.435A2.448,2.448,0,0,0,220.319,94a2.421,2.421,0,0,0-1.434,1.1l-.242.574a2.4,2.4,0,0,0,0,1.276Z"/><path class="d" d="M226.214,96.676q.3,2.022.8,4a2.4,2.4,0,0,0,2.952,1.676,2.422,2.422,0,0,0,1.434-1.1,2.536,2.536,0,0,0,.242-1.849q-.5-1.981-.8-4a2.682,2.682,0,0,0-1.1-1.434,2.456,2.456,0,0,0-1.85-.242,2.426,2.426,0,0,0-1.434,1.1l-.242.573a2.423,2.423,0,0,0,0,1.276Z"/><path class="e" d="M39.547,51.634c-.214-.1-.446-.181-.661-.286a2.443,2.443,0,0,1-.539-.361,3.787,3.787,0,0,1-.483-.411,2.37,2.37,0,0,1-.679-2.354c.244-.694.9-1.185,1.133-1.882.426-1.266-.756-2.922-.215-4.144a2.509,2.509,0,0,1,2.15-1.516c.776-.159,1.7-.226,2.113-.905a4.168,4.168,0,0,0,.317-1.12,2.311,2.311,0,0,1,2.259-1.87,3.2,3.2,0,0,1,1.689.314,4.211,4.211,0,0,0,1.02.561c.769.187,1.47-.427,2.129-.867a2.816,2.816,0,0,1,2.8-.5c1.17.646,1.387,2.516,2.587,3.1.661.323,1.47.2,2.135.516a2.371,2.371,0,0,1,1.2,2.137,3.929,3.929,0,0,1-.047.632,2.475,2.475,0,0,1-.122.638,4.2,4.2,0,0,0-.352,1.109c-.033.792.706,1.359,1.267,1.919a2.793,2.793,0,0,1,.931,2.677c-.405,1.273-2.089,1.822-2.431,3.113-.188.711.09,1.482-.089,2.2A2.369,2.369,0,0,1,55.8,55.921c-1.278.272-2.6-.506-3.785-.172-1.161.551-1.33,1.966-2.373,2.652a2.367,2.367,0,0,1-2.441.206c-.633-.374-.986-1.112-1.624-1.478-1.159-.665-2.733.147-3.924-.459a2.79,2.79,0,0,1-1.25-2.543c0-.792.111-1.717-.476-2.249A1.531,1.531,0,0,0,39.547,51.634Z"/><path class="d" d="M75.808,0C59.34.036,42.93,4.923,29.724,14.9A74.693,74.693,0,0,0,3.505,52.274a83.261,83.261,0,0,0-.018,47.745A71.756,71.756,0,0,0,28.042,136.5c12.228,9.467,27.252,14.461,42.618,15.356,15.737.916,32-2.121,45.72-10.074a68.544,68.544,0,0,0,28.2-31.65,85.8,85.8,0,0,0,6.04-47.047A74.975,74.975,0,0,0,130.293,22.2,74.237,74.237,0,0,0,88.592.994,85.9,85.9,0,0,0,75.808,0c-3.089-.007-3.093,4.793,0,4.8a72.514,72.514,0,0,1,43.343,13.977A69.075,69.075,0,0,1,143.522,53.6a79.935,79.935,0,0,1,.22,44.737,66.33,66.33,0,0,1-21.951,33.96c-11.053,8.922-25.189,13.658-39.336,14.67-14.818,1.061-29.978-1.457-43.052-8.7a65.7,65.7,0,0,1-27.681-29.9,78.2,78.2,0,0,1-6.07-44.111,70.849,70.849,0,0,1,18.9-38.451A69.9,69.9,0,0,1,63.919,5.683,77.56,77.56,0,0,1,75.808,4.8C78.9,4.793,78.9-.007,75.808,0Z"/><path class="d" d="M133.029,135.658a11.657,11.657,0,0,0-11.135,8.1,12.01,12.01,0,0,0,3.773,12.818,12.482,12.482,0,0,0,13.5.905c4.278-2.445,6.056-7.5,5.345-12.212a11.578,11.578,0,0,0-11.479-9.613c-3.089-.04-3.091,4.76,0,4.8a6.861,6.861,0,0,1,4.405,1.473c-.356-.277.23.217.238.225q.173.159.336.327c.163.167.319.342.469.521-.249-.3.064.085.118.166a5.983,5.983,0,0,1,1.009,2.081,7.837,7.837,0,0,1-.036,4.4c-.053.186-.11.37-.174.552-.015.042-.314.711-.1.266a9.553,9.553,0,0,1-.53.974q-.146.231-.308.452c-.236.324.373-.37-.1.11-.306.312-.6.623-.932.905.383-.322-.171.115-.215.144q-.183.121-.374.234c-.192.113-.392.209-.587.316-.615.333.238-.077-.154.072a9.572,9.572,0,0,1-1.226.374c-.157.037-.314.064-.471.1-.29.046-.32.053-.092.021-.167.019-.334.033-.5.044a11.227,11.227,0,0,1-1.284.014c-.248-.011-.5-.027-.745-.06.117.016.375.083-.084-.023-.424-.1-.844-.188-1.258-.326-.182-.061-.365-.124-.542-.2.417.178-.271-.152-.35-.2a7.567,7.567,0,0,1-1.034-.663c.319.249.02,0-.03-.044-.158-.156-.326-.3-.481-.459a6.291,6.291,0,0,1-1.163-1.711c-.335-.612.106.392-.123-.277-.051-.149-.106-.3-.153-.446a9.636,9.636,0,0,1-.333-1.413c.017.113.025.389-.008-.11-.018-.258-.038-.514-.043-.773q-.008-.316,0-.634c0-.091.078-.888.018-.454a6.545,6.545,0,0,1,2.183-4.267c.008-.007.592-.506.238-.228a6.9,6.9,0,0,1,.586-.4q.3-.192.624-.358c.037-.019.669-.305.311-.16a8.646,8.646,0,0,1,1.435-.43,5.843,5.843,0,0,1,1.456-.132C136.116,140.418,136.124,135.618,133.029,135.658Z"/><path class="d" d="M150.386,156.929A7.265,7.265,0,0,0,143.464,162a7.4,7.4,0,0,0,2.382,7.9,7.672,7.672,0,0,0,8.323.563,7.362,7.362,0,0,0,3.318-7.674,7.188,7.188,0,0,0-7.1-5.863,2.4,2.4,0,1,0,0,4.8c.141,0,.281.013.421.017.505.014-.582-.13-.1-.015.214.05.427.093.636.162a1.944,1.944,0,0,0,.243.087c-.537-.09-.362-.163-.112-.033.223.115.415.275.632.4-.547-.3-.279-.22-.107-.061.06.055.118.112.175.17a3.359,3.359,0,0,0,.245.272c-.4-.329-.252-.36-.118-.145.119.192.231.383.341.58.091.163.067.341-.09-.236.043.158.115.311.161.469.058.2.078.414.135.614-.174-.617-.04-.419-.038-.193,0,.108.01.216.011.324,0,.217-.048.444-.035.659-.036-.615.061-.4.01-.136-.028.141-.062.281-.1.419-.027.1-.057.193-.091.288-.089.253-.271.353.064-.135-.107.157-.175.347-.277.509-.051.08-.112.155-.161.236-.152.254.423-.48.128-.175-.156.161-.338.309-.487.473.412-.452.329-.242.119-.1-.064.043-.129.083-.2.122-.1.059-.2.11-.307.165-.382.208.486-.157.194-.078-.216.059-.422.145-.641.2-.081.019-.164.032-.246.051-.405.093.656-.051,0-.007a5.761,5.761,0,0,1-.67.007,1.694,1.694,0,0,1-.39-.031c.01,0,.643.121.261.029-.221-.054-.44-.1-.656-.171-.095-.031-.188-.075-.284-.1.681.2.292.123.091.013s-.356-.235-.54-.346c.629.383.151.108-.035-.084-.066-.068-.124-.15-.194-.215-.216-.2.359.527.126.164-.129-.2-.245-.4-.36-.61-.222-.4.2.57.051.129-.025-.078-.055-.155-.079-.233-.074-.235-.085-.514-.174-.739.012.032.055.639.036.248-.006-.135-.019-.269-.022-.4,0-.11,0-.22,0-.331.01-.247.16-.617-.031.067.067-.24.094-.489.17-.73.036-.115.1-.233.125-.35l-.144.348c.034-.074.07-.148.108-.22.115-.218.27-.408.391-.62-.315.555-.219.278-.064.11.083-.09.169-.177.259-.26.17-.158.441-.247-.108.06.1-.059.2-.146.306-.21s.215-.129.326-.187c.075-.039.15-.076.227-.111l-.338.143c.244-.03.5-.172.749-.225l.131-.026q.382-.063-.235.027a3.915,3.915,0,0,0,.56-.029,2.4,2.4,0,1,0,0-4.8Z"/><path class="f" d="M115.562,63.778a8.046,8.046,0,0,0-.962-5.223l-.7-1.327C98.9,61.655,80.134,69.09,68.354,76.8a73.173,73.173,0,0,0-28.449,34.411l.265.127c5.141,2.222,10.945.809,16.283-.967,5.265-1.752,10.637-3.56,15.051-6.923C81.487,95.844,85.2,81.38,96.334,75.592c4.2-2.182,11.03-4.114,15.12-6.494A7.89,7.89,0,0,0,115.562,63.778Z"/><path class="a" d="M34.544,104.623a5.812,5.812,0,0,1,.055-1.232c.946-6.165,5.094-13.793,9.845-19.346a73.5,73.5,0,0,1,12.9-10.7c14.091-8.9,23.4-15.431,39.6-19.357,5.584-1.353,12.533-1.179,15.884,1.869a8.863,8.863,0,0,1,1.079,1.374C98.9,61.655,80.134,69.09,68.354,76.8A73.2,73.2,0,0,0,39.9,111.212c-1.611-.766-2.448-.95-3.631-2.443A7.5,7.5,0,0,1,34.544,104.623Z"/><path class="d" d="M41.179,109.615a8.629,8.629,0,0,1-3.343-2.079,5.251,5.251,0,0,1-1.156-4.479,33.56,33.56,0,0,1,3.742-9.679,42.544,42.544,0,0,1,6.1-8.654A63.181,63.181,0,0,1,53.416,78.6a98.29,98.29,0,0,1,8.277-5.652c3.017-1.918,6.031-3.843,9.094-5.687a98.652,98.652,0,0,1,17.965-8.777c6.227-2.2,13.7-4.729,20.272-2.527a6.972,6.972,0,0,1,4.5,5.366c.7,2.92-1.245,5.062-3.657,6.367-5.709,3.09-12.419,4.212-17.677,8.153C87.186,79.6,83.743,84.868,80.3,90s-7.041,10.279-12.455,13.5a53.176,53.176,0,0,1-10.306,4.4c-3.7,1.251-7.522,2.571-11.477,2.578a13.809,13.809,0,0,1-5.365-1.068,2.012,2.012,0,0,0-2.46,1.4,2.051,2.051,0,0,0,1.4,2.46c4.026,1.659,8.461,1.379,12.621.4a79.019,79.019,0,0,0,11.979-3.981,35.649,35.649,0,0,0,10.132-6.019,44.727,44.727,0,0,0,6.624-7.633c3.793-5.277,6.956-11.156,11.824-15.564,5.236-4.742,12.484-5.93,18.619-9.092,3.179-1.639,5.794-4.261,6.179-7.963a11.853,11.853,0,0,0-3.356-8.96c-2.389-2.339-6.08-3.068-9.29-3.247a35.873,35.873,0,0,0-11.546,1.616,92.59,92.59,0,0,0-20.712,8.678c-3.286,1.849-6.49,3.84-9.676,5.855-3.236,2.044-6.551,4.009-9.642,6.27a83.8,83.8,0,0,0-8.225,6.793,43.358,43.358,0,0,0-6.679,8.36A44.007,44.007,0,0,0,33.4,99.671a14.237,14.237,0,0,0-.814,5.371,9.916,9.916,0,0,0,2.636,5.567,11.82,11.82,0,0,0,3.94,2.459C41.47,114.179,43.5,110.731,41.179,109.615Z"/><path class="d" d="M42.733,109.563A71.847,71.847,0,0,1,64,82.372C73.14,75.14,84.059,70.185,94.831,65.927q9.646-3.813,19.6-6.771c2.463-.729,1.415-4.59-1.063-3.857a215.618,215.618,0,0,0-35.51,13.815C67.35,74.391,57.717,81.205,50.118,90.262a72.574,72.574,0,0,0-10.839,17.282A2.063,2.063,0,0,0,40,110.28a2.015,2.015,0,0,0,2.737-.717Z"/><path class="d" d="M43.616,83.808a24.59,24.59,0,0,0,.267,6.452c.239,2.155.5,4.312.841,6.454a2.007,2.007,0,0,0,2.461,1.4,2.06,2.06,0,0,0,1.4-2.46c-.05-.312-.095-.624-.14-.936q-.045-.314-.088-.627c-.014-.107-.029-.214-.043-.321-.048-.349.069.528-.006-.041-.151-1.154-.294-2.31-.422-3.466s-.244-2.308-.322-3.466c-.031-.461-.057-.922-.064-1.385,0-.193,0-.387,0-.581,0-.069.01-.138.011-.207.005-.412-.082.519-.039.25a2.052,2.052,0,0,0-1.4-2.46,2.022,2.022,0,0,0-2.46,1.4Z"/><path class="d" d="M50.888,79.191c.035,2.673.213,5.341.249,8.014a2,2,0,0,0,4,0c-.036-2.673-.214-5.341-.249-8.014a2,2,0,0,0-4,0Z"/><path class="g" d="M79.288,292.945q8.4,5.259,16.9,10.366c.975.584,1.942,1.2,2.94,1.74a3.54,3.54,0,0,0,4.761-.809c1.777-2.183,3.493-4.418,5.244-6.622q1.6-2.02,3.206-4.042a25.794,25.794,0,0,1,2.667-3.29l-1.059.617c-.341.135-.951-.359-.258.059.259.157.534.291.8.436l1.735.943q2.114,1.147,4.223,2.3,2.049,1.119,4.092,2.248c1.39.77,2.867,1.907,4.542,1.475,2.073-.535,2.644-2.724,3.413-4.463s1.522-3.478,2.282-5.218a4.438,4.438,0,0,0,.4-.919c.038-.24.454-.6-.248.015-.609.536-.332.218.06.288a17.608,17.608,0,0,0,3.07-.031q2.9-.026,5.808-.035c4.077-.012,8.154,0,12.231.042,3.09.035,3.092-4.765,0-4.8q-5.449-.063-10.9-.045-3.124.006-6.249.03c-1.855.015-4.275-.342-6.029.3-1.732.635-2.229,2.589-2.9,4.122q-1.209,2.778-2.439,5.546a3.857,3.857,0,0,0-.29.648l-.194.43,1.637-.541c-.025-.113-.672-.377-.785-.44q-1.02-.569-2.044-1.132-2.246-1.237-4.5-2.461-2-1.089-4-2.173c-1.345-.731-2.815-1.806-4.425-1.378-1.378.366-2.1,1.57-2.926,2.616s-1.647,2.083-2.472,3.123q-2.739,3.453-5.478,6.905-.516.651-1.03,1.3c-.126.159-.908.933-.866,1.1-.125-.5,1.709.372,1.409-.251-.027-.056-.189-.094-.237-.137a3.869,3.869,0,0,0-.615-.36q-.73-.429-1.458-.864c-5.91-3.526-11.771-7.138-17.605-10.788-2.626-1.644-5.038,2.508-2.423,4.144Z"/><path class="g" d="M82.825,244.7q5.665,8.172,11.478,16.244c.661.915,1.32,1.832,2,2.735a3.686,3.686,0,0,0,5.129,1.207c2.472-1.266,4.889-2.65,7.323-3.985q2.247-1.233,4.5-2.465l2.026-1.105q.4-.217.8-.434c.089-.048.187-.091.271-.146.6-.4.15.218-.383.007l-1.059-.617a34.223,34.223,0,0,1,3.822,4.738q2.275,2.909,4.531,5.832c.835,1.083,1.577,2.382,2.984,2.769,1.811.5,3.087-.675,4.307-1.809,1.1-1.026,2.189-2.072,3.279-3.113q.69-.66,1.386-1.314.375-.351.752-.7l.3-.272q.46-.473.22-.163h-1.276a22.612,22.612,0,0,1,3.8,1.606q1.8.795,3.6,1.591,3.883,1.71,7.793,3.363a2.483,2.483,0,0,0,3.283-.861,2.416,2.416,0,0,0-.861-3.284c-4.529-1.913-9.022-3.91-13.522-5.892-1.283-.565-2.65-1.439-4.1-1.151-1.341.266-2.272,1.325-3.236,2.226-.892.832-1.77,1.679-2.652,2.521-.494.472-.987.942-1.484,1.41q-.426.4-.854.8c-.116.107-.231.215-.348.321q-.451.354.246.008l1.212.328q.244.477-.123-.07l-.452-.587-.935-1.212q-.91-1.18-1.826-2.359-1.758-2.265-3.529-4.522a42.779,42.779,0,0,0-2.666-3.367c-1.53-1.583-3.4-1.038-5.1-.122-2.578,1.394-5.144,2.811-7.714,4.22q-2.053,1.125-4.11,2.247-.8.435-1.6.868c-.257.138-.514.277-.772.414l-.34.182q-.568.279.547-.121l1.059.617c.112.105-.319-.339-.426-.485q-.294-.4-.586-.8-.708-.969-1.409-1.944-1.85-2.57-3.68-5.153-3.758-5.293-7.461-10.623a2.462,2.462,0,0,0-3.283-.861,2.421,2.421,0,0,0-.861,3.284Z"/><path class="e" d="M101.33,102.22c-.113-.054-.235-.095-.348-.15a1.311,1.311,0,0,1-.283-.19,2,2,0,0,1-.254-.216,1.244,1.244,0,0,1-.356-1.236c.128-.365.472-.623.595-.989.224-.665-.4-1.535-.113-2.177a1.319,1.319,0,0,1,1.129-.8c.408-.083.9-.119,1.11-.476a2.185,2.185,0,0,0,.167-.588,1.213,1.213,0,0,1,1.186-.982,1.682,1.682,0,0,1,.888.165,2.213,2.213,0,0,0,.536.294c.4.1.772-.224,1.118-.455a1.479,1.479,0,0,1,1.471-.264c.614.339.728,1.322,1.359,1.63.347.169.772.106,1.121.271a1.244,1.244,0,0,1,.63,1.122,2.036,2.036,0,0,1-.025.332,1.315,1.315,0,0,1-.064.335,2.233,2.233,0,0,0-.185.583c-.017.416.371.714.665,1.008a1.466,1.466,0,0,1,.49,1.406c-.213.669-1.1.958-1.277,1.636-.1.374.047.778-.047,1.153a1.245,1.245,0,0,1-.978.836c-.672.143-1.364-.266-1.989-.09-.609.289-.7,1.033-1.246,1.393a1.243,1.243,0,0,1-1.282.108c-.333-.2-.519-.584-.854-.776-.608-.35-1.435.077-2.061-.241a1.468,1.468,0,0,1-.657-1.336c0-.416.059-.9-.249-1.182A.855.855,0,0,0,101.33,102.22Z"/></svg>