<?xml version="1.0" encoding="utf-8"?>
<!-- Uploaded to: SVG Repo, www.svgrepo.com, Generator: SVG Repo Mixer Tools -->
<svg width="800px" height="800px" viewBox="0 -23.46 372.071 372.071" xmlns="http://www.w3.org/2000/svg"><defs><style>.a{fill:#ffffff;}.b{fill:#a095c1;}.c{fill:#211715;}.d{fill:#f6928f;}.e{fill:#a98a75;}.f{fill:#d9d5e6;}.g{fill:#f8b8b4;}.h{fill:#f2635f;}</style></defs><path class="a" d="M75.808,2.4C32.426,2.4,2.44,36,2.44,75.318c0,43.991,30.631,74.286,73.371,74.286,44.387,0,73.371-30.578,73.371-74.286C149.182,35.733,119.038,2.4,75.808,2.4Z"/><path class="a" d="M133.029,138.058a9.079,9.079,0,0,0-9.258,9.2c0,5.552,3.865,9.375,9.259,9.375,5.6,0,9.259-3.859,9.259-9.375A9.071,9.071,0,0,0,133.029,138.058Z"/><path class="a" d="M150.386,159.329a4.743,4.743,0,0,0-4.836,4.807,4.664,4.664,0,0,0,4.836,4.9,4.615,4.615,0,0,0,4.837-4.9A4.739,4.739,0,0,0,150.386,159.329Z"/><path class="b" d="M101.33,102.22c-.113-.054-.235-.095-.348-.15a1.311,1.311,0,0,1-.283-.19,2,2,0,0,1-.254-.216,1.244,1.244,0,0,1-.356-1.236c.128-.365.472-.623.595-.989.224-.665-.4-1.535-.113-2.177a1.319,1.319,0,0,1,1.129-.8c.408-.083.9-.119,1.11-.476a2.185,2.185,0,0,0,.167-.588,1.213,1.213,0,0,1,1.186-.982,1.682,1.682,0,0,1,.888.165,2.213,2.213,0,0,0,.536.294c.4.1.772-.224,1.118-.455a1.479,1.479,0,0,1,1.471-.264c.614.339.728,1.322,1.359,1.63.347.169.772.106,1.121.271a1.244,1.244,0,0,1,.63,1.122,2.036,2.036,0,0,1-.025.332,1.315,1.315,0,0,1-.064.335,2.233,2.233,0,0,0-.185.583c-.017.416.371.714.665,1.008a1.466,1.466,0,0,1,.49,1.406c-.213.669-1.1.958-1.277,1.636-.1.374.047.778-.047,1.153a1.245,1.245,0,0,1-.978.836c-.672.143-1.364-.266-1.989-.09-.609.289-.7,1.033-1.246,1.393a1.243,1.243,0,0,1-1.282.108c-.333-.2-.519-.584-.854-.776-.608-.35-1.435.077-2.061-.241a1.468,1.468,0,0,1-.657-1.336c0-.416.059-.9-.249-1.182A.855.855,0,0,0,101.33,102.22Z"/><path class="b" d="M39.547,51.634c-.214-.1-.446-.181-.661-.286a2.443,2.443,0,0,1-.539-.361,3.787,3.787,0,0,1-.483-.411,2.37,2.37,0,0,1-.679-2.354c.244-.694.9-1.185,1.133-1.882.426-1.266-.756-2.922-.215-4.144a2.509,2.509,0,0,1,2.15-1.516c.776-.159,1.7-.226,2.113-.905a4.168,4.168,0,0,0,.317-1.12,2.311,2.311,0,0,1,2.259-1.87,3.2,3.2,0,0,1,1.689.314,4.211,4.211,0,0,0,1.02.561c.769.187,1.47-.427,2.129-.867a2.816,2.816,0,0,1,2.8-.5c1.17.646,1.387,2.516,2.587,3.1.661.323,1.47.2,2.135.516a2.371,2.371,0,0,1,1.2,2.137,3.929,3.929,0,0,1-.047.632,2.475,2.475,0,0,1-.122.638,4.2,4.2,0,0,0-.352,1.109c-.033.792.706,1.359,1.267,1.919a2.793,2.793,0,0,1,.931,2.677c-.405,1.273-2.089,1.822-2.431,3.113-.188.711.09,1.482-.089,2.2A2.369,2.369,0,0,1,55.8,55.921c-1.278.272-2.6-.506-3.785-.172-1.161.551-1.33,1.966-2.373,2.652a2.367,2.367,0,0,1-2.441.206c-.633-.374-.986-1.112-1.624-1.478-1.159-.665-2.733.147-3.924-.459a2.79,2.79,0,0,1-1.25-2.543c0-.792.111-1.717-.476-2.249A1.531,1.531,0,0,0,39.547,51.634Z"/><path class="c" d="M75.808,0C59.34.036,42.93,4.923,29.724,14.9A74.693,74.693,0,0,0,3.505,52.274a83.261,83.261,0,0,0-.018,47.745A71.756,71.756,0,0,0,28.042,136.5c12.228,9.467,27.252,14.461,42.618,15.356,15.737.916,32-2.121,45.72-10.074a68.544,68.544,0,0,0,28.2-31.65,85.8,85.8,0,0,0,6.04-47.047A74.975,74.975,0,0,0,130.293,22.2,74.237,74.237,0,0,0,88.592.994,85.9,85.9,0,0,0,75.808,0c-3.089-.007-3.093,4.793,0,4.8a72.514,72.514,0,0,1,43.343,13.977A69.075,69.075,0,0,1,143.522,53.6a79.935,79.935,0,0,1,.22,44.737,66.33,66.33,0,0,1-21.951,33.96c-11.053,8.922-25.189,13.658-39.336,14.67-14.818,1.061-29.978-1.457-43.052-8.7a65.7,65.7,0,0,1-27.681-29.9,78.2,78.2,0,0,1-6.07-44.111,70.849,70.849,0,0,1,18.9-38.451A69.9,69.9,0,0,1,63.919,5.683,77.56,77.56,0,0,1,75.808,4.8C78.9,4.793,78.9-.007,75.808,0Z"/><path class="c" d="M133.029,135.658a11.657,11.657,0,0,0-11.135,8.1,12.01,12.01,0,0,0,3.773,12.818,12.482,12.482,0,0,0,13.5.905c4.278-2.445,6.056-7.5,5.345-12.212a11.578,11.578,0,0,0-11.479-9.613c-3.089-.04-3.091,4.76,0,4.8a6.861,6.861,0,0,1,4.405,1.473c-.356-.277.23.217.238.225q.173.159.336.327c.163.167.319.342.469.521-.249-.3.064.085.118.166a5.983,5.983,0,0,1,1.009,2.081,7.837,7.837,0,0,1-.036,4.4c-.053.186-.11.37-.174.552-.015.042-.314.711-.1.266a9.553,9.553,0,0,1-.53.974q-.146.231-.308.452c-.236.324.373-.37-.1.11-.306.312-.6.623-.932.905.383-.322-.171.115-.215.144q-.183.121-.374.234c-.192.113-.392.209-.587.316-.615.333.238-.077-.154.072a9.572,9.572,0,0,1-1.226.374c-.157.037-.314.064-.471.1-.29.046-.32.053-.092.021-.167.019-.334.033-.5.044a11.227,11.227,0,0,1-1.284.014c-.248-.011-.5-.027-.745-.06.117.016.375.083-.084-.023-.424-.1-.844-.188-1.258-.326-.182-.061-.365-.124-.542-.2.417.178-.271-.152-.35-.2a7.567,7.567,0,0,1-1.034-.663c.319.249.02,0-.03-.044-.158-.156-.326-.3-.481-.459a6.291,6.291,0,0,1-1.163-1.711c-.335-.612.106.392-.123-.277-.051-.149-.106-.3-.153-.446a9.636,9.636,0,0,1-.333-1.413c.017.113.025.389-.008-.11-.018-.258-.038-.514-.043-.773q-.008-.316,0-.634c0-.091.078-.888.018-.454a6.545,6.545,0,0,1,2.183-4.267c.008-.007.592-.506.238-.228a6.9,6.9,0,0,1,.586-.4q.3-.192.624-.358c.037-.019.669-.305.311-.16a8.646,8.646,0,0,1,1.435-.43,5.843,5.843,0,0,1,1.456-.132C136.116,140.418,136.124,135.618,133.029,135.658Z"/><path class="c" d="M150.386,156.929A7.265,7.265,0,0,0,143.464,162a7.4,7.4,0,0,0,2.382,7.9,7.672,7.672,0,0,0,8.323.563,7.362,7.362,0,0,0,3.318-7.674,7.188,7.188,0,0,0-7.1-5.863,2.4,2.4,0,1,0,0,4.8c.141,0,.281.013.421.017.505.014-.582-.13-.1-.015.214.05.427.093.636.162a1.944,1.944,0,0,0,.243.087c-.537-.09-.362-.163-.112-.033.223.115.415.275.632.4-.547-.3-.279-.22-.107-.061.06.055.118.112.175.17a3.359,3.359,0,0,0,.245.272c-.4-.329-.252-.36-.118-.145.119.192.231.383.341.58.091.163.067.341-.09-.236.043.158.115.311.161.469.058.2.078.414.135.614-.174-.617-.04-.419-.038-.193,0,.108.01.216.011.324,0,.217-.048.444-.035.659-.036-.615.061-.4.01-.136-.028.141-.062.281-.1.419-.027.1-.057.193-.091.288-.089.253-.271.353.064-.135-.107.157-.175.347-.277.509-.051.08-.112.155-.161.236-.152.254.423-.48.128-.175-.156.161-.338.309-.487.473.412-.452.329-.242.119-.1-.064.043-.129.083-.2.122-.1.059-.2.11-.307.165-.382.208.486-.157.194-.078-.216.059-.422.145-.641.2-.081.019-.164.032-.246.051-.405.093.656-.051,0-.007a5.761,5.761,0,0,1-.67.007,1.694,1.694,0,0,1-.39-.031c.01,0,.643.121.261.029-.221-.054-.44-.1-.656-.171-.095-.031-.188-.075-.284-.1.681.2.292.123.091.013s-.356-.235-.54-.346c.629.383.151.108-.035-.084-.066-.068-.124-.15-.194-.215-.216-.2.359.527.126.164-.129-.2-.245-.4-.36-.61-.222-.4.2.57.051.129-.025-.078-.055-.155-.079-.233-.074-.235-.085-.514-.174-.739.012.032.055.639.036.248-.006-.135-.019-.269-.022-.4,0-.11,0-.22,0-.331.01-.247.16-.617-.031.067.067-.24.094-.489.17-.73.036-.115.1-.233.125-.35l-.144.348c.034-.074.07-.148.108-.22.115-.218.27-.408.391-.62-.315.555-.219.278-.064.11.083-.09.169-.177.259-.26.17-.158.441-.247-.108.06.1-.059.2-.146.306-.21s.215-.129.326-.187c.075-.039.15-.076.227-.111l-.338.143c.244-.03.5-.172.749-.225l.131-.026q.382-.063-.235.027a3.915,3.915,0,0,0,.56-.029,2.4,2.4,0,1,0,0-4.8Z"/><path class="d" d="M115.562,63.778a8.046,8.046,0,0,0-.962-5.223l-.7-1.327C98.9,61.655,80.134,69.09,68.354,76.8a73.173,73.173,0,0,0-28.449,34.411l.265.127c5.141,2.222,10.945.809,16.283-.967,5.265-1.752,10.637-3.56,15.051-6.923C81.487,95.844,85.2,81.38,96.334,75.592c4.2-2.182,11.03-4.114,15.12-6.494A7.89,7.89,0,0,0,115.562,63.778Z"/><path class="a" d="M34.544,104.623a5.812,5.812,0,0,1,.055-1.232c.946-6.165,5.094-13.793,9.845-19.346a73.5,73.5,0,0,1,12.9-10.7c14.091-8.9,23.4-15.431,39.6-19.357,5.584-1.353,12.533-1.179,15.884,1.869a8.863,8.863,0,0,1,1.079,1.374C98.9,61.655,80.134,69.09,68.354,76.8A73.2,73.2,0,0,0,39.9,111.212c-1.611-.766-2.448-.95-3.631-2.443A7.5,7.5,0,0,1,34.544,104.623Z"/><path class="c" d="M41.179,109.615a8.629,8.629,0,0,1-3.343-2.079,5.251,5.251,0,0,1-1.156-4.479,33.56,33.56,0,0,1,3.742-9.679,42.544,42.544,0,0,1,6.1-8.654A63.181,63.181,0,0,1,53.416,78.6a98.29,98.29,0,0,1,8.277-5.652c3.017-1.918,6.031-3.843,9.094-5.687a98.652,98.652,0,0,1,17.965-8.777c6.227-2.2,13.7-4.729,20.272-2.527a6.972,6.972,0,0,1,4.5,5.366c.7,2.92-1.245,5.062-3.657,6.367-5.709,3.09-12.419,4.212-17.677,8.153C87.186,79.6,83.743,84.868,80.3,90s-7.041,10.279-12.455,13.5a53.176,53.176,0,0,1-10.306,4.4c-3.7,1.251-7.522,2.571-11.477,2.578a13.809,13.809,0,0,1-5.365-1.068,2.012,2.012,0,0,0-2.46,1.4,2.051,2.051,0,0,0,1.4,2.46c4.026,1.659,8.461,1.379,12.621.4a79.019,79.019,0,0,0,11.979-3.981,35.649,35.649,0,0,0,10.132-6.019,44.727,44.727,0,0,0,6.624-7.633c3.793-5.277,6.956-11.156,11.824-15.564,5.236-4.742,12.484-5.93,18.619-9.092,3.179-1.639,5.794-4.261,6.179-7.963a11.853,11.853,0,0,0-3.356-8.96c-2.389-2.339-6.08-3.068-9.29-3.247a35.873,35.873,0,0,0-11.546,1.616,92.59,92.59,0,0,0-20.712,8.678c-3.286,1.849-6.49,3.84-9.676,5.855-3.236,2.044-6.551,4.009-9.642,6.27a83.8,83.8,0,0,0-8.225,6.793,43.358,43.358,0,0,0-6.679,8.36A44.007,44.007,0,0,0,33.4,99.671a14.237,14.237,0,0,0-.814,5.371,9.916,9.916,0,0,0,2.636,5.567,11.82,11.82,0,0,0,3.94,2.459C41.47,114.179,43.5,110.731,41.179,109.615Z"/><path class="c" d="M42.733,109.563A71.847,71.847,0,0,1,64,82.372C73.14,75.14,84.059,70.185,94.831,65.927q9.646-3.813,19.6-6.771c2.463-.729,1.415-4.59-1.063-3.857a215.618,215.618,0,0,0-35.51,13.815C67.35,74.391,57.717,81.205,50.118,90.262a72.574,72.574,0,0,0-10.839,17.282A2.063,2.063,0,0,0,40,110.28a2.015,2.015,0,0,0,2.737-.717Z"/><path class="c" d="M43.616,83.808a24.59,24.59,0,0,0,.267,6.452c.239,2.155.5,4.312.841,6.454a2.007,2.007,0,0,0,2.461,1.4,2.06,2.06,0,0,0,1.4-2.46c-.05-.312-.095-.624-.14-.936q-.045-.314-.088-.627c-.014-.107-.029-.214-.043-.321-.048-.349.069.528-.006-.041-.151-1.154-.294-2.31-.422-3.466s-.244-2.308-.322-3.466c-.031-.461-.057-.922-.064-1.385,0-.193,0-.387,0-.581,0-.069.01-.138.011-.207.005-.412-.082.519-.039.25a2.052,2.052,0,0,0-1.4-2.46,2.022,2.022,0,0,0-2.46,1.4Z"/><path class="c" d="M50.888,79.191c.035,2.673.213,5.341.249,8.014a2,2,0,0,0,4,0c-.036-2.673-.214-5.341-.249-8.014a2,2,0,0,0-4,0Z"/><path class="e" d="M310.706,162.993c9-5.5,8.432-12.086,8.074-16.041a44.158,44.158,0,0,0-4.117-15.215c-2.894-6.6-8.36-20.048-10.642-44.686a118.86,118.86,0,0,0-1.19-15.621c-.315-2.416-.618-4.457-.829-5.791-2.47-15.97-13.662-33.458-26.353-39.365-15.609-9.767-28.794-10.819-41.532-8.5-18.076,3.286-31.79,12.228-40.089,25.06C189.238,50.24,186.433,60.464,186,69.3A89.878,89.878,0,0,0,190.486,99.4c4.01,19.047.66,40.026,3.892,55.617,1.012,4.957,4.2,10.695,11.677,14.665Z"/><path class="c" d="M279.82,31.587C287.906,37.646,293.781,47,297.147,56.42a71.625,71.625,0,0,1,3.284,15.01c.368,2.809.684,5.626.906,8.451.226,2.867.139,5.76.422,8.616a165.238,165.238,0,0,0,5.477,29.84q1.344,4.615,3.07,9.107c1.125,2.909,2.48,5.726,3.571,8.646a37.49,37.49,0,0,1,2.647,14.548,10.935,10.935,0,0,1-1.3,4.729,15.835,15.835,0,0,1-5.725,5.553c-2.618,1.628-.211,5.783,2.422,4.145,4.233-2.633,7.951-6.381,9.023-11.408.837-3.923.259-8.2-.5-12.077a45.051,45.051,0,0,0-2.573-8.386c-.439-1.075-.907-2.138-1.369-3.2q-.155-.354-.306-.71c-.043-.1-.085-.2-.127-.3-.159-.373.18.438-.084-.2-1.117-2.7-2.14-5.444-3.045-8.227a147.32,147.32,0,0,1-5.976-28.328c-.7-5.979-.688-12-1.385-17.984A93.227,93.227,0,0,0,302.653,57.8c-3.566-11.714-10.541-22.959-20.41-30.355a2.416,2.416,0,0,0-3.284.861,2.459,2.459,0,0,0,.861,3.284Z"/><path class="a" d="M207.184,79.415c3.573-3.552,7.115-7.191,10.528-10.758a.457.457,0,0,1,.778.408,32.743,32.743,0,0,0-.6,7.989,2.065,2.065,0,0,0,2.872,1.8c12.614-5.278,23.976-13.553,31.143-23.544a140.472,140.472,0,0,0,7.266,14.524c3.1,5.316,10.814,14.194,17.228,16.649l6.516.645,3.873.384a7.794,7.794,0,0,1,5.445-1.891c3.9.129,5.563,2.138,6.276,3.316,2.129,3.525,2.04,10.009.6,14.028a20.4,20.4,0,0,1-6.593,9.92,15.007,15.007,0,0,1-7.1,2.555c-.2.58-.383,1.11-.383,1.11-.7,2.052-2.5,5.712-2.5,5.712a67.283,67.283,0,0,1-7.815,12.108q1.146,3.468,2.293,6.937a26.968,26.968,0,0,0,2.169,5.277c2.534,4.31,11.2,4.645,17.111,5.853-10.647,14.738-27.793,22.7-45.072,24.99a48.554,48.554,0,0,1-18.75-.83c-6.023-1.569-11.688-4.406-15.848-9.344,4.18-2.205,9.678-4.9,12.824-6.84,2.748-1.392,6.139-3.817,5.613-7.223-8.06.2-15.481-2.038-22.882-6.763-8.97-5.726-13.954-15.671-16.8-27.066q-.191-.764-.369-1.535c-1.6-6.939-3.177-14.5-5.087-22.017l-.1-.388,1.577-1.368c.657-.57,1.7-1.4,2.554-2.154C198.284,88.077,202.758,83.814,207.184,79.415Z"/><path class="f" d="M209.026,77.574C204,82.62,198.886,87.546,193.948,91.9c-.855.758-1.9,1.584-2.554,2.154l-1.577,1.368.1.388c.9,3.549,1.729,7.109,2.519,10.608,10.216-3.8,24.315-6.134,34-6.684l21.533-1.224a68.53,68.53,0,0,1,8.513-.13c4.663.315,9.2,1.578,13.764,2.581a125.685,125.685,0,0,0,16.725,2.511,20.048,20.048,0,0,0,8.182-.549,10.957,10.957,0,0,0,4.765-3.274c.546-3.7.2-8.049-1.4-10.711-.713-1.178-2.376-3.187-6.276-3.316a7.794,7.794,0,0,0-5.445,1.891l-3.873-.384-6.516-.645c-6.414-2.455-14.126-11.333-17.228-16.649a140.472,140.472,0,0,1-7.266-14.524c-7.167,9.991-18.529,18.266-31.143,23.544a2.065,2.065,0,0,1-2.872-1.8,32.743,32.743,0,0,1,.6-7.989.457.457,0,0,0-.778-.408C214.887,71.61,211.973,74.613,209.026,77.574Z"/><path class="c" d="M272.048,21.421a57.679,57.679,0,0,0-30.426-6.98,71.106,71.106,0,0,0-27.89,7.619A57.269,57.269,0,0,0,193.8,38.95c-6,8.132-9.151,18.182-10.048,28.184a71.65,71.65,0,0,0,.576,15.773,90.966,90.966,0,0,0,3.973,17.516c.994,2.906,5.633,1.658,4.629-1.276-5.965-17.434-7.248-38.613,2.958-54.776,9.12-14.443,25.5-22.763,42.148-24.8a51.712,51.712,0,0,1,14.984.209,56.215,56.215,0,0,1,16.6,5.785c2.733,1.434,5.162-2.707,2.422-4.145Z"/><path class="c" d="M249.954,56.811c2.738,6.4,5.831,12.98,10.085,18.526,4.138,5.4,9.274,10.907,15.722,13.458a2.416,2.416,0,0,0,2.952-1.676,2.456,2.456,0,0,0-1.676-2.952,24.209,24.209,0,0,1-7.048-4.926,52.236,52.236,0,0,1-6.418-7.137c-3.952-5.337-6.871-11.637-9.472-17.715a2.415,2.415,0,0,0-3.284-.861,2.462,2.462,0,0,0-.861,3.283Z"/><path class="c" d="M249.82,54.115c-6.407,8.854-15.556,15.57-25.275,20.386q-1.891.938-3.828,1.781a4.277,4.277,0,0,0-.593.256c-.475.33-.332-.165.066.162.013.011,0,.033.02.041q.144.708.064-.168c-.007-.24-.01-.48-.012-.72a31.1,31.1,0,0,1,.245-4.483c.234-1.7.887-3.714-.947-4.81-1.641-.981-3.037-.128-4.192,1.076q-1.633,1.7-3.277,3.4-3.488,3.59-7.039,7.118c-4.96,4.916-10.048,9.668-15.356,14.2a2.421,2.421,0,0,0,0,3.394,2.45,2.45,0,0,0,3.4,0c4.524-3.867,8.894-7.88,13.154-12.039q3.324-3.246,6.578-6.56,1.668-1.7,3.322-3.4.741-.763,1.478-1.529a10.783,10.783,0,0,1,1.513-1.615l-1.212.328h.226l-1.211-.328.2.1-.861-.861.127.187-.328-1.212a17.28,17.28,0,0,1-.4,2.785c-.127,1.094-.195,2.194-.213,3.3-.033,1.993-.061,4,1.564,5.415,1.69,1.468,3.637,1.173,5.527.364q2.621-1.121,5.164-2.41A79.429,79.429,0,0,0,245.97,65.619a62.821,62.821,0,0,0,8-9.082,2.419,2.419,0,0,0-.861-3.283,2.453,2.453,0,0,0-3.284.861Z"/><path class="c" d="M187.385,96.654c2.892,11.188,2.879,22.81,2.956,34.288.035,5.336.068,10.684.517,16,.381,4.508.881,9.139,2.737,13.308a25.078,25.078,0,0,0,11.249,11.5c2.718,1.469,5.144-2.674,2.423-4.144a20.953,20.953,0,0,1-9.275-9.228c-1.656-3.445-2.033-7.777-2.35-11.628-.89-10.781-.252-21.626-.884-32.421a98.667,98.667,0,0,0-2.745-18.951c-.772-2.988-5.4-1.722-4.628,1.276Z"/><path class="c" d="M240.513,102.165c-.966-2.409-.943-8.138,3.7-9.011,6.194-.477,7.095,6.372,5.28,9.778C248.008,105.721,243.082,107.239,240.513,102.165Z"/><path class="c" d="M203.854,106.373c-.91-2.424-.945-8.164,3.3-8.993,5.674-.417,6.568,6.455,4.937,9.851C210.76,110.01,206.259,111.482,203.854,106.373Z"/><path class="c" d="M223.742,109.648c-.724,1.626-1.418,3.275-2,4.958a4.76,4.76,0,0,0-.321,1.806,3.418,3.418,0,0,0,.45,1.606,4.036,4.036,0,0,0,1.232,1.2,4.789,4.789,0,0,0,2.275.763c.323.034.64,0,.963.014a2.421,2.421,0,0,0,2.4-2.4,2.448,2.448,0,0,0-2.4-2.4c-.322-.009-.641.023-.963-.014l.638.085a2.509,2.509,0,0,1-.588-.165l.573.242a3.429,3.429,0,0,1-.577-.343l.486.375a1.486,1.486,0,0,1-.223-.2l.375.486a.774.774,0,0,1-.086-.14l.242.573a1.38,1.38,0,0,1-.072-.237l.086.638a1.816,1.816,0,0,1,0-.442l-.086.638a9.688,9.688,0,0,1,.628-1.934c.269-.7.554-1.4.846-2.091l-.242.573c.165-.391.333-.782.506-1.17a2.607,2.607,0,0,0,.241-1.849,2.446,2.446,0,0,0-1.1-1.435,2.421,2.421,0,0,0-1.849-.241,2.328,2.328,0,0,0-1.434,1.1Z"/><path class="c" d="M273.641,139.226a64.345,64.345,0,0,0,13.7-22.04,2.4,2.4,0,0,0-4.629-1.276,53.039,53.039,0,0,1-4.007,8.363,61.891,61.891,0,0,1-8.463,11.559c-2.1,2.259,1.284,5.661,3.394,3.394Z"/><path class="c" d="M261.305,142.04a59.129,59.129,0,0,1-19.182,7.948,37.6,37.6,0,0,1-20.192-1.33,35.121,35.121,0,0,1-15.58-10.721c-3.893-4.829-6.309-10.778-7.992-16.692-2.442-8.578-3.941-17.429-6.13-26.076-.757-2.993-5.388-1.725-4.628,1.276,2.061,8.142,3.574,16.424,5.71,24.544,1.722,6.548,4.255,13.089,8.288,18.579,8.715,11.865,24.06,17.538,38.472,15.6,8.508-1.146,16.368-4.53,23.656-8.98,2.633-1.608.224-5.761-2.422-4.145Z"/><path class="c" d="M288.485,89.207a5.474,5.474,0,0,1,3.748-1.188,6.374,6.374,0,0,1,2.12.4,4.5,4.5,0,0,1,.656.32,4.213,4.213,0,0,1,.463.3c.178.147.329.32.5.476.077.072.144.159.213.238-.3-.338-.082-.118-.02-.027a7.163,7.163,0,0,1,.711,1.248,12.664,12.664,0,0,1,.853,4.227c.288,5.606-1.911,12.258-6.57,15.723-2.287,1.7-5.788,2.7-8.542,1.8-2.942-.962-4.2,3.671-1.276,4.629,3.8,1.241,8.344.112,11.682-1.92,3.461-2.107,5.9-5.717,7.454-9.382A24.27,24.27,0,0,0,302.5,94.83c-.239-3.424-1.136-7.161-3.924-9.417a10.746,10.746,0,0,0-13.489.4,2.421,2.421,0,0,0,0,3.394,2.449,2.449,0,0,0,3.394,0Z"/><path class="c" d="M244.684,86.462a15.375,15.375,0,0,0,9.242,2.88,2.4,2.4,0,1,0,0-4.8,12.8,12.8,0,0,1-1.856-.1l.638.085a14.082,14.082,0,0,1-3.525-.955l.573.242a13.166,13.166,0,0,1-2.65-1.5,2.418,2.418,0,0,0-1.849-.242,2.449,2.449,0,0,0-1.434,1.1,2.42,2.42,0,0,0-.242,1.85,2.765,2.765,0,0,0,1.1,1.434Z"/><path class="c" d="M261.057,97.462a56.275,56.275,0,0,0,.525,6.664c.28,1.946.586,4.206,1.969,5.716a5.884,5.884,0,0,0,5.933,1.414,6.331,6.331,0,0,0,4.147-4.569A2.4,2.4,0,0,0,269,105.411c-.043.153-.093.3-.14.452-.157.5.255-.454,0,.008-.075.136-.157.272-.227.41-.19.375.243-.241.053-.046-.109.112-.222.223-.329.336-.172.182.411-.216.032-.04a3.216,3.216,0,0,1-.3.159l.264-.114a3.424,3.424,0,0,0-.468.136c-.5.139.51.01-.014,0l-.494,0c-.442,0,.339.1.072,0-.1-.036-.611-.089-.251-.051.318.034-.025-.036-.144-.091-.444-.208.32.291-.016-.018s.213.422.006-.011c-.043-.072-.081-.147-.117-.222-.076-.16-.053-.1.07.178a2.57,2.57,0,0,1-.282-.905c-.087-.342-.157-.688-.225-1.034q-.124-.64-.224-1.286c-.009-.056-.108-.767-.036-.214-.028-.212-.053-.425-.077-.638-.186-1.648-.263-3.305-.3-4.962a2.4,2.4,0,0,0-4.8,0Z"/><path class="c" d="M218.643,96.949q.3,2.021.8,4a2.4,2.4,0,0,0,2.952,1.677,2.426,2.426,0,0,0,1.434-1.1,2.54,2.54,0,0,0,.242-1.85q-.5-1.982-.8-4a2.684,2.684,0,0,0-1.1-1.435A2.448,2.448,0,0,0,220.319,94a2.421,2.421,0,0,0-1.434,1.1l-.242.574a2.4,2.4,0,0,0,0,1.276Z"/><path class="c" d="M226.214,96.676q.3,2.022.8,4a2.4,2.4,0,0,0,2.952,1.676,2.422,2.422,0,0,0,1.434-1.1,2.536,2.536,0,0,0,.242-1.849q-.5-1.981-.8-4a2.682,2.682,0,0,0-1.1-1.434,2.456,2.456,0,0,0-1.85-.242,2.426,2.426,0,0,0-1.434,1.1l-.242.573a2.423,2.423,0,0,0,0,1.276Z"/><path class="g" d="M362.206,223.988c-5.221-20.185-12.213-41.6-28.44-56.847-4.553-4.279-12.361-8.5-20.512-11.481a69.888,69.888,0,0,0-16.4-4.028c-10.6,15.252-28.051,23.467-45.642,25.793a48.554,48.554,0,0,1-18.75-.83c-6.465-1.684-12.516-4.828-16.738-10.466-11.751,5.719-20.48,10.369-26.5,18.88-5.584,7.9-7.624,16.261-9.857,29.113-2.069,11.912-3.466,23.843-4.445,36.667-1.333,17.469.389,30.305,5.622,36.172,5.836,6.543,11.675,9.044,17.833,9.5,7.8.578,13.6-.664,18.755-3.408.459,1.451.882,2.913,1.284,4.381.041.148.086.294.126.442.382,1.418.731,2.844,1.06,4.276.093.4.178.808.267,1.213q.362,1.653.676,3.317c.074.4.153.793.224,1.191.258,1.448.494,2.9.7,4.355q.738,5.283,1,10.618h38.68V312.492l57.509.235c14.717-.745,29.07-5.581,37.858-12.6,6.27-5.007,9.455-9.111,11.432-15.626C372.191,270.533,367.605,244.867,362.206,223.988Z"/><path class="c" d="M222.464,160.2c-6.275,3.073-12.663,5.967-18.74,9.426a52.8,52.8,0,0,0-13.856,10.727c-8.649,9.885-11.1,22.858-13.2,35.424-1.332,8-2.374,16.049-3.183,24.118a195.57,195.57,0,0,0-1.362,23.906c.134,5.847.643,11.94,2.6,17.492a26.616,26.616,0,0,0,10.623,13.123c5.632,3.841,12.341,4.91,19.044,4.517a33.728,33.728,0,0,0,17.189-5.77c1.319-.9,2.585-1.884,3.819-2.9a2.416,2.416,0,0,0,0-3.394,2.453,2.453,0,0,0-3.394,0,30.767,30.767,0,0,1-14.724,6.964c-5.6.893-11.961.6-17.057-2.083a28.267,28.267,0,0,1-7.657-6.128c-.206-.226-.408-.453-.606-.686-.462-.544.261.377-.168-.209-.271-.37-.524-.753-.763-1.144q-.375-.618-.7-1.264c-.25-.494-.49-1.028-.6-1.294-1.95-4.874-2.538-10.231-2.755-15.435a166.3,166.3,0,0,1,.96-22.108c.7-7.612,1.595-15.207,2.766-22.761,1.848-11.913,3.564-24.739,10.788-34.772,3.451-4.793,8.231-8.394,13.265-11.379,6.472-3.837,13.374-6.923,20.123-10.228a2.424,2.424,0,0,0,.861-3.284,2.449,2.449,0,0,0-3.283-.861Z"/><path class="h" d="M79.288,292.945q8.4,5.259,16.9,10.366c.975.584,1.942,1.2,2.94,1.74a3.54,3.54,0,0,0,4.761-.809c1.777-2.183,3.493-4.418,5.244-6.622q1.6-2.02,3.206-4.042a25.794,25.794,0,0,1,2.667-3.29l-1.059.617c-.341.135-.951-.359-.258.059.259.157.534.291.8.436l1.735.943q2.114,1.147,4.223,2.3,2.049,1.119,4.092,2.248c1.39.77,2.867,1.907,4.542,1.475,2.073-.535,2.644-2.724,3.413-4.463s1.522-3.478,2.282-5.218a4.438,4.438,0,0,0,.4-.919c.038-.24.454-.6-.248.015-.609.536-.332.218.06.288a17.608,17.608,0,0,0,3.07-.031q2.9-.026,5.808-.035c4.077-.012,8.154,0,12.231.042,3.09.035,3.092-4.765,0-4.8q-5.449-.063-10.9-.045-3.124.006-6.249.03c-1.855.015-4.275-.342-6.029.3-1.732.635-2.229,2.589-2.9,4.122q-1.209,2.778-2.439,5.546a3.857,3.857,0,0,0-.29.648l-.194.43,1.637-.541c-.025-.113-.672-.377-.785-.44q-1.02-.569-2.044-1.132-2.246-1.237-4.5-2.461-2-1.089-4-2.173c-1.345-.731-2.815-1.806-4.425-1.378-1.378.366-2.1,1.57-2.926,2.616s-1.647,2.083-2.472,3.123q-2.739,3.453-5.478,6.905-.516.651-1.03,1.3c-.126.159-.908.933-.866,1.1-.125-.5,1.709.372,1.409-.251-.027-.056-.189-.094-.237-.137a3.869,3.869,0,0,0-.615-.36q-.73-.429-1.458-.864c-5.91-3.526-11.771-7.138-17.605-10.788-2.626-1.644-5.038,2.508-2.423,4.144Z"/><path class="h" d="M82.825,244.7q5.665,8.172,11.478,16.244c.661.915,1.32,1.832,2,2.735a3.686,3.686,0,0,0,5.129,1.207c2.472-1.266,4.889-2.65,7.323-3.985q2.247-1.233,4.5-2.465l2.026-1.105q.4-.217.8-.434c.089-.048.187-.091.271-.146.6-.4.15.218-.383.007l-1.059-.617a34.223,34.223,0,0,1,3.822,4.738q2.275,2.909,4.531,5.832c.835,1.083,1.577,2.382,2.984,2.769,1.811.5,3.087-.675,4.307-1.809,1.1-1.026,2.189-2.072,3.279-3.113q.69-.66,1.386-1.314.375-.351.752-.7l.3-.272q.46-.473.22-.163h-1.276a22.612,22.612,0,0,1,3.8,1.606q1.8.795,3.6,1.591,3.883,1.71,7.793,3.363a2.483,2.483,0,0,0,3.283-.861,2.416,2.416,0,0,0-.861-3.284c-4.529-1.913-9.022-3.91-13.522-5.892-1.283-.565-2.65-1.439-4.1-1.151-1.341.266-2.272,1.325-3.236,2.226-.892.832-1.77,1.679-2.652,2.521-.494.472-.987.942-1.484,1.41q-.426.4-.854.8c-.116.107-.231.215-.348.321q-.451.354.246.008l1.212.328q.244.477-.123-.07l-.452-.587-.935-1.212q-.91-1.18-1.826-2.359-1.758-2.265-3.529-4.522a42.779,42.779,0,0,0-2.666-3.367c-1.53-1.583-3.4-1.038-5.1-.122-2.578,1.394-5.144,2.811-7.714,4.22q-2.053,1.125-4.11,2.247-.8.435-1.6.868c-.257.138-.514.277-.772.414l-.34.182q-.568.279.547-.121l1.059.617c.112.105-.319-.339-.426-.485q-.294-.4-.586-.8-.708-.969-1.409-1.944-1.85-2.57-3.68-5.153-3.758-5.293-7.461-10.623a2.462,2.462,0,0,0-3.283-.861,2.421,2.421,0,0,0-.861,3.284Z"/><path class="c" d="M229.5,133.671a10.1,10.1,0,0,1,1.292-.773c.112-.056.225-.11.339-.163.05-.023.435-.183.156-.072-.316.127.261-.1.262-.1.126-.046.252-.091.379-.134a16.849,16.849,0,0,1,1.682-.473q.408-.093.819-.166c.137-.024.275-.043.412-.068.377-.071-.575.056.083-.01.541-.054,1.082-.094,1.625-.1.294,0,.588.006.881.024.126.008.253.018.379.03.067.006.479.07.143.011-.377-.065.194.041.216.046.129.026.257.054.385.086.3.074.594.165.887.259.706.227,1.4.482,2.112.695a2.424,2.424,0,0,0,2.953-1.676,2.449,2.449,0,0,0-1.677-2.952,27.435,27.435,0,0,0-4.237-1.173,15.168,15.168,0,0,0-3.873-.028,16.65,16.65,0,0,0-7.64,2.587,2.4,2.4,0,0,0,2.422,4.144Z"/><path class="c" d="M272.519,135.363c1.144,3.462,2.136,7.03,3.577,10.384a10.382,10.382,0,0,0,5.112,5.635c4.654,2.25,9.94,2.4,14.918,3.468a2.457,2.457,0,0,0,2.952-1.677,2.424,2.424,0,0,0-1.676-2.952c-4.406-.946-9.437-1.109-13.469-2.84-.228-.1-.832-.405-1.179-.614a3.187,3.187,0,0,1-.832-.6c-.158-.16-.319-.313-.468-.482-.109-.129-.1-.111.034.052-.064-.089-.125-.181-.181-.276a16.9,16.9,0,0,1-.943-1.854c-1.283-3.077-2.171-6.36-3.217-9.523-.965-2.92-5.6-1.669-4.628,1.276Z"/><path class="c" d="M232.654,153.182c.215,1.728-.774,2.876-2.372,3.959-1.678,1.138-3.535,2.1-5.318,3.061-4.038,2.185-8.195,4.153-12.195,6.409-2.691,1.517-.274,5.665,2.422,4.144,4.34-2.447,8.864-4.551,13.22-6.969,3.991-2.216,9.723-5.13,9.043-10.6a2.475,2.475,0,0,0-2.4-2.4,2.415,2.415,0,0,0-2.4,2.4Z"/><path class="c" d="M311.13,210.8a152.952,152.952,0,0,1,7.83,21.358c2.3,7.654,4.668,15.3,6.508,23.086.71,3,5.34,1.733,4.628-1.276-1.869-7.905-4.277-15.669-6.616-23.444a158.284,158.284,0,0,0-8.205-22.146,2.421,2.421,0,0,0-3.284-.861,2.453,2.453,0,0,0-.861,3.283Z"/><path class="c" d="M293.854,153.844c6.557.148,13.083,2.017,19.193,4.289,6.083,2.264,12.355,5.194,17.406,9.3,5.62,4.567,10.2,10.606,13.95,16.756a110.145,110.145,0,0,1,9.534,20.493c2.509,7.058,4.523,14.285,6.363,21.542,1.991,7.853,3.726,15.78,5.021,23.78a124.453,124.453,0,0,1,1.878,22.268c-.119,6.032-.941,12.213-4.13,17.475-3.481,5.743-9.433,10.1-15.313,13.137a70,70,0,0,1-22.823,6.882c-2.081.275-4.174.452-6.269.564-3.073.164-3.092,4.965,0,4.8,16.094-.86,33.489-5.934,44.785-18.042,10.046-10.768,9.279-26.617,7.644-40.249a261.168,261.168,0,0,0-10.756-48.174c-4.854-15.181-11.762-30.048-23.108-41.5a55.861,55.861,0,0,0-17.4-11.409,78.373,78.373,0,0,0-20.974-6.282,44.614,44.614,0,0,0-5-.428c-3.09-.07-3.089,4.73,0,4.8Z"/><path class="c" d="M301.744,271.437q15.964-5.634,31.576-12.151A2.48,2.48,0,0,0,335,256.334a2.417,2.417,0,0,0-2.953-1.677q-15.625,6.513-31.576,12.151a2.461,2.461,0,0,0-1.676,2.953,2.421,2.421,0,0,0,2.952,1.676Z"/><path class="c" d="M214.448,168.366c8.58,10.657,23.664,13.134,36.526,11.49,11.711-1.5,23.256-5.375,33-12.15a60.227,60.227,0,0,0,14.553-14.283,2.42,2.42,0,0,0-.861-3.284,2.454,2.454,0,0,0-3.284.861,57.621,57.621,0,0,1-25.64,19.444c-10.934,4.327-23.811,6.815-35.392,3.9-6.048-1.524-11.55-4.46-15.5-9.369a2.415,2.415,0,0,0-3.394,0,2.456,2.456,0,0,0,0,3.394Z"/><path class="c" d="M215.275,295.143a116.76,116.76,0,0,1,4.8,27.7c.154,3.074,4.955,3.093,4.8,0a122.376,122.376,0,0,0-4.97-28.979c-.885-2.952-5.519-1.695-4.629,1.276Z"/><path class="a" d="M208.823,181.773a108.126,108.126,0,0,1-4.905-31.434,19.606,19.606,0,0,1,1.016-7.493c.626-1.557,2.084-3.158,3.73-2.742,1.3.329,1.954,1.737,2.4,2.99a77.807,77.807,0,0,1,2.835,10.234l2.552-4.114c2.342-6.891,5.8-13.352,9.242-19.777,1.047-1.954,2.176-4,4.075-5.17s4.806-1.065,5.986.813l1.8,2.864.185-.332A8.479,8.479,0,0,1,240,124.675a4.415,4.415,0,0,1,3.938-.562,4.327,4.327,0,0,1,2.711,2.872,7.25,7.25,0,0,1-.575,4.773l-1.544,3.5,2.149-2.182c.958-.974,3.6-.918,4.558-.171,2.279,1.783,1.453,5.076,1,6.292-.716,1.917-1.756,4.36-2.9,6.92l2.3-2.36a4.172,4.172,0,0,1,4.777-.647,3.623,3.623,0,0,1,1.451,4.167c-1.965,6.8-7.249,17.867-10.811,25.079a38.54,38.54,0,0,1-10.138,13.881,38.906,38.906,0,0,0-2.884,3.543,8.149,8.149,0,0,0-1.391,2.531,1.21,1.21,0,0,1-.537.7,1.344,1.344,0,0,1-.743.047,39.119,39.119,0,0,1-19.936-8.1,25.728,25.728,0,0,1-2.592-3.186"/><path class="c" d="M211.137,181.135a106.487,106.487,0,0,1-4.762-27.939,39.369,39.369,0,0,1,.114-6.893,10.314,10.314,0,0,1,.664-2.579,3.032,3.032,0,0,1,.691-1.045c.459-.4.447-.092.182-.261a2.27,2.27,0,0,1,.6,1,33.918,33.918,0,0,1,1.168,3.53c.7,2.312,1.29,4.654,1.782,7.02.629,3.022,5.256,1.743,4.629-1.276-.459-2.208-1-4.4-1.643-6.558a25.339,25.339,0,0,0-2.128-5.807,4.971,4.971,0,0,0-5.1-2.6,6.335,6.335,0,0,0-4.326,3.572c-1.923,3.871-1.573,8.659-1.4,12.847a113.477,113.477,0,0,0,1.393,13.428,109.672,109.672,0,0,0,3.5,14.835c.911,2.941,5.546,1.686,4.629-1.276Z"/><path class="c" d="M218.76,149.852a112.219,112.219,0,0,1,7.247-15.918c1.153-2.177,2.178-4.736,3.83-6.589.723-.812,2.948-2.323,3.84-1.054a2.463,2.463,0,0,0,3.284.861,2.421,2.421,0,0,0,.861-3.283,6.7,6.7,0,0,0-7.98-2.277c-3.182,1.187-4.924,4.2-6.446,7.043a136.836,136.836,0,0,0-9.264,19.941c-1.007,2.927,3.628,4.185,4.628,1.276Z"/><path class="c" d="M227.041,152.761q3.306-6.471,6.732-12.879,1.772-3.31,3.574-6.6a51.373,51.373,0,0,1,3.33-5.9c.751-1.02,2.112-1.563,3.146-.571,1.138,1.092.5,2.964-.029,4.207-1.566,3.685-3.173,7.356-4.784,11.022-1.895,4.311-3.835,8.607-5.994,12.793-1.413,2.741,2.727,5.172,4.145,2.423,2.224-4.313,4.216-8.741,6.164-13.183.963-2.194,1.91-4.394,2.86-6.593a59.542,59.542,0,0,0,2.629-6.231,7.956,7.956,0,0,0-.875-6.969,6.742,6.742,0,0,0-6.865-2.631c-2.446.523-4.042,2.35-5.23,4.432-1.381,2.423-2.7,4.883-4.033,7.334q-4.563,8.409-8.915,16.93c-1.4,2.746,2.737,5.177,4.145,2.423Z"/><path class="c" d="M248.373,134.775c-.323.28.277-.027.437-.044a5.48,5.48,0,0,0,.62.028c.407.052.467.011.6.316a3.545,3.545,0,0,1,.176,2.536,42.152,42.152,0,0,1-2.78,6.913c-2.193,4.919-4.5,9.8-6.966,14.59-1.412,2.743,2.729,5.174,4.144,2.423,2.28-4.429,4.416-8.939,6.467-13.478,1.154-2.552,2.287-5.121,3.29-7.736a8.953,8.953,0,0,0-.033-7.405c-1.777-3.309-6.575-3.943-9.35-1.537-2.339,2.027,1.069,5.41,3.394,3.394Z"/><path class="c" d="M253.324,145.456c.422-.391,1.6-.708,2.117-.066.416.513.061,1.4-.117,1.975-.755,2.447-1.692,4.837-2.67,7.2-2.154,5.208-4.6,10.3-7.08,15.357a2.462,2.462,0,0,0,.861,3.284,2.422,2.422,0,0,0,3.283-.861c3.166-6.455,6.278-12.971,8.836-19.7,1.12-2.945,2.716-6.318,1.169-9.393-1.86-3.7-6.993-3.79-9.793-1.2-2.271,2.1,1.129,5.491,3.394,3.394Z"/><path class="c" d="M245.216,170.607a39.007,39.007,0,0,1-6.9,10.887c-1.444,1.559-3.124,2.889-4.438,4.564-.731.933-1.485,1.871-2.181,2.832-.615.85-.849,1.891-1.443,2.734l.861-.861c.221-.165.269-.025.025-.133a5.023,5.023,0,0,0-1.039-.161q-.916-.151-1.828-.339-1.672-.345-3.316-.824a34.3,34.3,0,0,1-6.338-2.548c-1-.528-1.984-1.1-2.939-1.714a26.774,26.774,0,0,1-2.638-1.84,11.162,11.162,0,0,1-2.151-2.642c-1.461-2.723-5.607-.3-4.145,2.422,1.372,2.557,3.808,4.433,6.169,5.982a40.386,40.386,0,0,0,11.148,5.079,45.741,45.741,0,0,0,6.012,1.243,4.612,4.612,0,0,0,3.463-.381c.954-.634,1.189-1.6,1.67-2.563,1.651-3.306,4.875-5.57,7.257-8.295a43.032,43.032,0,0,0,6.892-11.02,2.475,2.475,0,0,0-.861-3.283,2.418,2.418,0,0,0-3.284.861Z"/><path class="c" d="M201.311,185.471c-1.838,3.385-3.668,6.776-5.539,10.143a2.4,2.4,0,1,0,4.144,2.423c1.872-3.368,3.7-6.758,5.54-10.143a2.4,2.4,0,1,0-4.145-2.423Z"/><path class="c" d="M233.222,193.826c1.828,1.071,3.922,2.386,4.978,4.108a5.246,5.246,0,0,1,.743,2.083,9.058,9.058,0,0,1-.234,2.87c-1.069,4.884-2.588,9.692-4.076,14.461-.923,2.955,3.709,4.22,4.628,1.276q1.28-4.1,2.452-8.229a56.867,56.867,0,0,0,1.928-7.991,10.375,10.375,0,0,0-1.444-7.124,19.07,19.07,0,0,0-6.552-5.6c-2.671-1.565-5.09,2.582-2.423,4.144Z"/><path class="a" d="M240.448,288.79q.336-.084.708-.14c6.972-1.061,16.713-2.161,24.435-3.007a28.655,28.655,0,0,0,9.528-2.813,22.137,22.137,0,0,1-6.916-4.146,10.664,10.664,0,0,1-3.3-4.59c-.576-1.819-.617-3.331.752-4.661,1.321-1.284,3.613-1.6,6.261-.747,2.233.72,4.79,1.629,6.98,2.471,1.706.657,3.535.933,5.26,1.536,3.182,1.111,10.557,3.54,13.478,3.207,4.519,3.558,8.026,15.844,9.567,25.507-.681,1.569-1.217,2.811-1.217,2.811-.974,2.961-3.056,5.152-5.466,7.129-5.011,4.108-13.789,7.223-19.735,8.332-8.145,1.187-16.728,2.519-23.95,2.852-3.175.147-5.015-.049-6.842-1.145a4.411,4.411,0,0,1-1.3-5.54c-1.634.421-5.315.782-7.344-.708-1.7-1.247-2.172-5.276.128-6.788,0,0,.4-.26,1.06-.692a12.749,12.749,0,0,1-4.262-.383,4.778,4.778,0,0,1-3.308-3.431,4.988,4.988,0,0,1,4.581-5.87q1.034-.137,2.1-.275l-1.486-.339a4.507,4.507,0,0,1-3.493-4.153C236.5,291.638,237.543,289.507,240.448,288.79Z"/><path class="c" d="M275.577,280.448c-2.908-1.144-6.2-3.167-7.844-5.906-.463-.771-1.2-2.236-.657-3.124.588-.969,2.16-.886,3.118-.7,3.67.7,7.069,2.611,10.683,3.545,2.7.7,5.306,1.69,7.981,2.472,2.73.8,5.889,1.832,8.772,1.569a2.465,2.465,0,0,0,2.4-2.4,2.417,2.417,0,0,0-2.4-2.4c-2.634.24-5.618-.824-8.312-1.64-1.412-.428-2.813-.893-4.209-1.371-1.97-.674-4.018-1.06-5.969-1.795-2.049-.773-4.108-1.523-6.193-2.193a10.429,10.429,0,0,0-6.312-.336,6.432,6.432,0,0,0-4.206,3.974,8.323,8.323,0,0,0,.774,6.111c2.068,4.283,6.836,7.15,11.1,8.826a2.417,2.417,0,0,0,2.952-1.676,2.456,2.456,0,0,0-1.676-2.952Z"/><path class="c" d="M274.118,280.656c-6.737,3.167-14.4,3.207-21.677,4.089-3.617.438-7.233.9-10.839,1.428-3.13.46-6.28,1.868-7.154,5.212a7,7,0,0,0,5.07,8.289c2.99.786,4.265-3.843,1.276-4.628a2.228,2.228,0,0,1-1.745-2.256c-.018-.476-.1.2.056-.241.091-.266.1-.3.025-.095a3.754,3.754,0,0,1,.258-.436c-.211.284.438-.4.328-.315a3.275,3.275,0,0,1,.592-.358c1.613-.75,3.9-.741,5.643-.976,1.873-.254,3.749-.489,5.626-.719,4.135-.507,8.275-.975,12.417-1.431a42.792,42.792,0,0,0,6.054-.953,37.351,37.351,0,0,0,6.492-2.465,2.421,2.421,0,0,0,.861-3.284,2.452,2.452,0,0,0-3.283-.861Z"/><path class="c" d="M264.013,292.6q-7.975.9-15.94,1.886-4.065.5-8.127,1.036a8.381,8.381,0,0,0-6.195,3.305A7.082,7.082,0,0,0,238.04,309.7c4.179,1.022,8.906-.148,13.1-.673,5.314-.664,10.626-1.34,15.932-2.067a2.415,2.415,0,0,0,1.676-2.953,2.464,2.464,0,0,0-2.952-1.676q-11.023,1.512-22.081,2.812c-1.738.2-4.327.541-5.752-.73a2.837,2.837,0,0,1-.577-.786,1.764,1.764,0,0,1-.115-.42c.1.386.008.045-.007-.054a2.364,2.364,0,0,1,.332-1.454c.678-1.133,2.107-1.347,3.583-1.54q3.665-.477,7.331-.929,7.744-.957,15.5-1.831a2.472,2.472,0,0,0,2.4-2.4,2.415,2.415,0,0,0-2.4-2.4Z"/><path class="c" d="M240.258,306.278a6.843,6.843,0,0,0-2.251,8.124c1.328,3.407,4.949,4.385,8.331,4.188,7.632-.443,15.277-1.645,22.857-2.6a2.477,2.477,0,0,0,2.4-2.4,2.414,2.414,0,0,0-2.4-2.4c-6.109.773-12.219,1.541-18.344,2.171-2.5.257-5.469.994-7.869-.019a1.521,1.521,0,0,1-.659-1.206,2.655,2.655,0,0,1,.051-1.082,1.113,1.113,0,0,1,.306-.627,2.47,2.47,0,0,0,.861-3.284,2.417,2.417,0,0,0-3.283-.861Z"/><path class="c" d="M302.336,310.953c1.446,1.435,3.423,2.54,5.476,1.745a4.434,4.434,0,0,0,2.575-4.437,57.486,57.486,0,0,0-1.055-8.577,77.373,77.373,0,0,0-5.318-18.584c-1.114-2.486-2.533-5.152-4.687-6.9a2.472,2.472,0,0,0-3.394,0,2.418,2.418,0,0,0,0,3.394,10.542,10.542,0,0,1,1.156,1.12,7.649,7.649,0,0,1,.866,1.193,27.181,27.181,0,0,1,1.915,3.613,59.662,59.662,0,0,1,3.092,9.312,97.944,97.944,0,0,1,2.07,10.177c.188,1.264.347,2.606.463,3.976.029.342.058.684.077,1.026q.024.293.021.585a.142.142,0,0,1,.072-.086c.041.017.868-.595.857-.318,0,.12-.855-.7-.792-.636-2.195-2.179-5.591,1.214-3.394,3.394Z"/><path class="c" d="M246.214,315.577a7.005,7.005,0,0,0,1.564,7.118,9.694,9.694,0,0,0,5.93,2.224,43.64,43.64,0,0,0,7.342-.275c2.707-.236,5.406-.556,8.1-.908,5.1-.668,10.349-1.143,15.332-2.431a56.023,56.023,0,0,0,12.963-5.052c4.652-2.562,9.054-6.255,10.849-11.4a2.4,2.4,0,0,0-4.628-1.276c-1.215,3.48-4.454,6.048-7.516,7.882a47.713,47.713,0,0,1-10.856,4.631,83.56,83.56,0,0,1-12.366,2.322c-4.586.652-9.186,1.256-13.809,1.581-2.4.169-9.656,1.254-8.276-3.143.927-2.954-3.7-4.218-4.629-1.276Z"/></svg>